<?xml version="1.0" encoding="utf-8"?>
<!-- Generator: Adobe Illustrator 23.0.1, SVG Export Plug-In . SVG Version: 6.00 Build 0)  -->
<svg version="1.1" id="Слой_1" xmlns="http://www.w3.org/2000/svg" xmlns:xlink="http://www.w3.org/1999/xlink" x="0px" y="0px"
	 viewBox="0 0 54.11 53.17" style="enable-background:new 0 0 54.11 53.17;" xml:space="preserve">
<style type="text/css">
	.st0{fill:none;stroke:#7A7A7A;stroke-width:2;stroke-opacity:0.5;}
	.st1{fill:#1F1F1F;}
</style>
<circle class="st0" cx="27.01" cy="29.17" r="24"/>
<path class="st1" d="M25.46,32.91h7.13v3.07H21.41v-1.27c0-0.86,0.14-1.63,0.43-2.31c0.29-0.69,0.65-1.3,1.09-1.84
	c0.44-0.55,0.91-1.03,1.43-1.44c0.52-0.42,1.02-0.8,1.49-1.14c0.49-0.35,0.92-0.69,1.29-1.01c0.38-0.32,0.69-0.64,0.94-0.95
	c0.26-0.32,0.45-0.64,0.57-0.96c0.13-0.33,0.19-0.68,0.19-1.04c0-0.72-0.2-1.26-0.61-1.63c-0.41-0.37-1.03-0.55-1.86-0.55
	c-1.45,0-2.83,0.57-4.15,1.72v-3.26c1.46-0.95,3.11-1.42,4.95-1.42c0.85,0,1.61,0.11,2.29,0.34c0.68,0.22,1.25,0.54,1.72,0.95
	c0.47,0.41,0.82,0.92,1.07,1.51c0.25,0.59,0.38,1.24,0.38,1.97c0,0.77-0.12,1.46-0.36,2.06c-0.23,0.6-0.55,1.15-0.95,1.64
	c-0.39,0.49-0.84,0.95-1.36,1.36c-0.52,0.41-1.05,0.8-1.61,1.18c-0.38,0.27-0.74,0.53-1.09,0.8c-0.34,0.26-0.65,0.52-0.91,0.77
	c-0.27,0.25-0.48,0.5-0.63,0.74C25.54,32.46,25.46,32.69,25.46,32.91z"/>
</svg>
