<?xml version="1.0" encoding="utf-8"?>
<!-- Generator: Adobe Illustrator 23.0.1, SVG Export Plug-In . SVG Version: 6.00 Build 0)  -->
<svg version="1.1" id="Слой_1" xmlns="http://www.w3.org/2000/svg" xmlns:xlink="http://www.w3.org/1999/xlink" x="0px" y="0px"
	 viewBox="0 0 50 50" style="enable-background:new 0 0 50 50;" xml:space="preserve">
<style type="text/css">
	.st0{fill:none;stroke:#7A7A7A;stroke-width:2;stroke-opacity:0.5;}
	.st1{fill:#1F1F1F;}
</style>
<circle class="st0" cx="25" cy="25" r="24"/>
<path class="st1" d="M19.64,32.85v-3.22c1.13,0.82,2.44,1.23,3.94,1.23c0.95,0,1.68-0.2,2.2-0.61c0.53-0.41,0.8-0.97,0.8-1.7
	c0-0.75-0.33-1.33-0.98-1.73c-0.65-0.41-1.54-0.61-2.68-0.61h-1.56v-2.84h1.44c2.19,0,3.28-0.73,3.28-2.18
	c0-1.37-0.84-2.05-2.52-2.05c-1.13,0-2.22,0.36-3.28,1.09V17.2c1.18-0.59,2.55-0.89,4.13-0.89c1.72,0,3.05,0.39,4.01,1.16
	c0.96,0.77,1.44,1.78,1.44,3.01c0,2.2-1.11,3.57-3.34,4.13v0.06c1.19,0.15,2.13,0.58,2.81,1.3c0.69,0.71,1.03,1.59,1.03,2.63
	c0,1.57-0.57,2.81-1.72,3.73c-1.15,0.91-2.73,1.37-4.76,1.37C22.14,33.69,20.73,33.41,19.64,32.85z"/>
</svg>
