<?xml version="1.0" encoding="utf-8"?>
<!-- Generator: Adobe Illustrator 23.0.1, SVG Export Plug-In . SVG Version: 6.00 Build 0)  -->
<svg version="1.1" id="Слой_1" xmlns="http://www.w3.org/2000/svg" xmlns:xlink="http://www.w3.org/1999/xlink" x="0px" y="0px"
	 viewBox="0 0 56.85 58.22" style="enable-background:new 0 0 56.85 58.22;" xml:space="preserve">
<style type="text/css">
	.st0{fill:none;stroke:#7A7A7A;stroke-width:2;stroke-opacity:0.5;}
	.st1{fill:#1F1F1F;}
</style>
<circle class="st0" cx="28.75" cy="29.01" r="24"/>
<path class="st1" d="M25.63,35.33v-3.16c1.15,0.7,2.37,1.05,3.67,1.05c0.98,0,1.74-0.23,2.29-0.69c0.55-0.47,0.83-1.1,0.83-1.9
	c0-1.66-1.18-2.5-3.53-2.5c-0.87,0-1.87,0.07-3,0.2l0.63-9.37h8.89v3.02h-6.07l-0.23,3.36c0.6-0.05,1.12-0.07,1.56-0.07
	c1.73,0,3.08,0.45,4.05,1.36c0.98,0.91,1.46,2.13,1.46,3.66c0,1.7-0.58,3.08-1.75,4.16c-1.16,1.07-2.74,1.61-4.73,1.61
	C28.09,36.05,26.73,35.81,25.63,35.33z"/>
</svg>
