<?xml version="1.0" encoding="utf-8"?>
<!-- Generator: Adobe Illustrator 23.0.1, SVG Export Plug-In . SVG Version: 6.00 Build 0)  -->
<svg version="1.1" id="Слой_1" xmlns="http://www.w3.org/2000/svg" xmlns:xlink="http://www.w3.org/1999/xlink" x="0px" y="0px"
	 viewBox="0 0 34.25 32.73" style="enable-background:new 0 0 34.25 32.73;" xml:space="preserve">
<style type="text/css">
	.st0{fill:#7B5382;}
	.st1{fill:#FFFFFF;}
</style>
<circle class="st0" cx="17.25" cy="16.58" r="15"/>
<path class="st1" d="M20.56,8.58h-5.62c-2.59,0-4.69,2.1-4.69,4.69v5.62c0,2.59,2.1,4.69,4.69,4.69h5.62c2.59,0,4.69-2.1,4.69-4.69
	v-5.62C25.25,10.68,23.15,8.58,20.56,8.58z M23.84,18.89c0,1.81-1.47,3.28-3.28,3.28h-5.62c-1.81,0-3.28-1.47-3.28-3.28v-5.62
	c0-1.81,1.47-3.28,3.28-3.28h5.62c1.81,0,3.28,1.47,3.28,3.28V18.89z"/>
<path class="st1" d="M17.75,12.33c-2.07,0-3.75,1.68-3.75,3.75s1.68,3.75,3.75,3.75s3.75-1.68,3.75-3.75S19.82,12.33,17.75,12.33z
	 M17.75,18.43c-1.29,0-2.34-1.05-2.34-2.34c0-1.29,1.05-2.34,2.34-2.34c1.29,0,2.34,1.05,2.34,2.34
	C20.09,17.37,19.04,18.43,17.75,18.43z"/>
</svg>
