<?xml version="1.0" encoding="utf-8"?>
<!-- Generator: Adobe Illustrator 23.0.1, SVG Export Plug-In . SVG Version: 6.00 Build 0)  -->
<svg version="1.1" id="Слой_1" xmlns="http://www.w3.org/2000/svg" xmlns:xlink="http://www.w3.org/1999/xlink" x="0px" y="0px"
	 viewBox="0 0 53.77 54.45" style="enable-background:new 0 0 53.77 54.45;" xml:space="preserve">
<style type="text/css">
	.st0{fill:#FFFFFF;stroke:#4C97AD;stroke-width:2;}
	.st1{fill:#313131;}
</style>
<path class="st0" d="M27.18,3.76L27.18,3.76c-13.25,0-24,10.75-24,24l0,0c0,13.25,10.75,24,24,24l0,0c13.25,0,24-10.75,24-24l0,0
	C51.18,14.5,40.43,3.76,27.18,3.76z"/>
<path class="st1" d="M32.53,28.11c0.2-0.2,0.2-0.51,0-0.71l-3.18-3.18c-0.2-0.2-0.51-0.2-0.71,0c-0.2,0.2-0.2,0.51,0,0.71l2.83,2.83
	l-2.83,2.83c-0.2,0.2-0.2,0.51,0,0.71c0.2,0.2,0.51,0.2,0.71,0L32.53,28.11z M22.18,28.26h10v-1h-10V28.26z"/>
</svg>
