<?xml version="1.0" encoding="utf-8"?>
<!-- Generator: Adobe Illustrator 23.0.1, SVG Export Plug-In . SVG Version: 6.00 Build 0)  -->
<svg version="1.1" id="Слой_1" xmlns="http://www.w3.org/2000/svg" xmlns:xlink="http://www.w3.org/1999/xlink" x="0px" y="0px"
	 viewBox="0 0 469 401" style="enable-background:new 0 0 469 401;" xml:space="preserve">
<style type="text/css">
	.st0{fill:#C3C3C4;}
	.st1{fill:url(#SVGID_1_);}
	.st2{fill:url(#SVGID_2_);}
	.st3{fill:#FFFFFF;}
</style>
<rect x="138.33" y="68.33" transform="matrix(0.7071 -0.7071 0.7071 0.7071 -62.133 248.9978)" class="st0" width="262.34" height="262.34"/>
<linearGradient id="SVGID_1_" gradientUnits="userSpaceOnUse" x1="96.7696" y1="384.5498" x2="96.7696" y2="122.2128" gradientTransform="matrix(0.7071 -0.7071 -0.7071 -0.7071 380.2417 447.0942)">
	<stop  offset="0" style="stop-color:#43324F"/>
	<stop  offset="1" style="stop-color:#8C6AAA"/>
</linearGradient>
<polygon class="st1" points="84,199.5 269.5,14 455,199.5 269.5,385 "/>
<g>
	
		<rect x="44.23" y="121.2" transform="matrix(0.7071 -0.7071 0.7071 0.7071 -105.2866 145.3299)" class="st0" width="157.12" height="157.12"/>
	
		<linearGradient id="SVGID_2_" gradientUnits="userSpaceOnUse" x1="-28.1535" y1="384.2928" x2="-28.1535" y2="227.1768" gradientTransform="matrix(0.7071 -0.7071 -0.7071 -0.7071 358.8801 396.0367)">
		<stop  offset="0" style="stop-color:#5CB7C1"/>
		<stop  offset="1" style="stop-color:#4C93AB"/>
	</linearGradient>
	<polygon class="st2" points="11.69,199.76 122.79,88.66 233.88,199.76 122.79,310.85 	"/>
</g>
<path class="st3" d="M297.07,126.53l61.06-61.06c11.76-11.76,30.83-11.76,42.59,0l0,0c11.76,11.76,11.76,30.83,0,42.59l-61.06,61.06
	c-11.76,11.76-30.83,11.76-42.59,0l0,0C285.31,157.36,285.31,138.29,297.07,126.53z"/>
<path class="st3" d="M15.22,259.45l61.06-61.06c11.76-11.76,30.83-11.76,42.59,0l0,0c11.76,11.76,11.76,30.83,0,42.59L57.8,302.04
	c-11.76,11.76-30.83,11.76-42.59,0l0,0C3.46,290.28,3.46,271.21,15.22,259.45z"/>
</svg>
