<?xml version="1.0" encoding="utf-8"?>
<!-- Generator: Adobe Illustrator 23.0.1, SVG Export Plug-In . SVG Version: 6.00 Build 0)  -->
<svg version="1.1" id="Слой_1" xmlns="http://www.w3.org/2000/svg" xmlns:xlink="http://www.w3.org/1999/xlink" x="0px" y="0px"
	 viewBox="0 0 33 42" style="enable-background:new 0 0 33 42;" xml:space="preserve">
<style type="text/css">
	.st0{fill:#7A7A7A;}
</style>
<path class="st0" d="M18.87,17.5h-9.3c-0.87,0-1.58,0.71-1.58,1.58v13.34C7.99,33.29,8.7,34,9.57,34h9.3c0.87,0,1.58-0.71,1.58-1.58
	V19.08C20.45,18.21,19.74,17.5,18.87,17.5z M19.34,32.41c0,0.26-0.21,0.48-0.48,0.48h-9.3c-0.26,0-0.48-0.21-0.48-0.48V19.08
	c0-0.26,0.21-0.48,0.48-0.48h9.3c0.26,0,0.48,0.21,0.48,0.48V32.41z"/>
<path class="st0" d="M22.43,14h-9.3c-0.87,0-1.58,0.71-1.58,1.58c0,0.31,0.25,0.55,0.55,0.55s0.55-0.25,0.55-0.55
	c0-0.26,0.21-0.48,0.48-0.48h9.3c0.26,0,0.48,0.21,0.48,0.48v13.34c0,0.26-0.21,0.48-0.48,0.48c-0.31,0-0.55,0.25-0.55,0.55
	s0.25,0.55,0.55,0.55c0.87,0,1.58-0.71,1.58-1.58V15.58C24.01,14.71,23.3,14,22.43,14z"/>
</svg>
