<?xml version="1.0" encoding="utf-8"?>
<!-- Generator: Adobe Illustrator 23.0.1, SVG Export Plug-In . SVG Version: 6.00 Build 0)  -->
<svg version="1.1" id="Слой_1" xmlns="http://www.w3.org/2000/svg" xmlns:xlink="http://www.w3.org/1999/xlink" x="0px" y="0px"
	 viewBox="0 0 428 341" style="enable-background:new 0 0 428 341;" xml:space="preserve">
<style type="text/css">
	.st0{fill:#4C6EB2;stroke:#FFFFFF;}
	.st1{fill:#8B5895;stroke:#FFFFFF;}
	.st2{fill:#528C5C;stroke:#FFFFFF;}
	.st3{fill:#CD4B43;stroke:#FFFFFF;}
	.st4{fill:#E49744;stroke:#FFFFFF;}
	.st5{fill:none;stroke:#477655;}
	.st6{fill:#1F1F1F;}
</style>
<path class="st0" d="M333.7,176.58c0-28.25-9.81-55.62-27.74-77.45c-17.94-21.82-42.9-36.74-70.61-42.21l-8.86,44.87
	c17.32,3.42,32.92,12.74,44.13,26.38s17.34,30.75,17.34,48.4H333.7z"/>
<path class="st1" d="M235.35,56.92c-21.01-4.15-42.75-2.69-63.01,4.23c-20.27,6.92-38.36,19.05-52.45,35.18l34.44,30.09
	c8.81-10.08,20.11-17.66,32.78-21.99c12.67-4.32,26.25-5.24,39.38-2.64L235.35,56.92z"/>
<path class="st2" d="M119.88,96.33c-20.86,23.87-31.6,54.93-29.96,86.59c1.65,31.66,15.55,61.43,38.78,83.01l31.14-33.51
	c-14.51-13.49-23.21-32.1-24.24-51.88c-1.03-19.79,5.69-39.2,18.72-54.12L119.88,96.33z"/>
<path class="st3" d="M128.7,265.93c14.09,13.09,31.07,22.66,49.56,27.94c18.49,5.28,37.97,6.11,56.84,2.42
	c18.87-3.68,36.61-11.78,51.76-23.62c15.15-11.84,27.28-27.1,35.41-44.53l-41.45-19.34c-5.08,10.89-12.66,20.43-22.13,27.83
	c-9.47,7.4-20.55,12.46-32.35,14.76c-11.8,2.3-23.97,1.78-35.52-1.51c-11.56-3.3-22.17-9.28-30.97-17.46L128.7,265.93z"/>
<path class="st4" d="M322.27,228.15c7.53-16.15,11.43-33.75,11.43-51.56h-45.74c0,11.14-2.44,22.14-7.15,32.23L322.27,228.15z"/>
<path class="st5" d="M159.84,64.94l-9.85-28.86"/>
<path class="st6" d="M122.85,34.78h-1.31v-8.09c0-0.73,0.03-1.24,0.08-1.54h-0.05c-0.1,0.26-0.22,0.49-0.36,0.7l-5.77,8.93h-1.63
	v-11.2h1.31v7.89c0,0.84-0.02,1.39-0.06,1.65h0.03c0.11-0.23,0.26-0.48,0.44-0.75l5.63-8.79h1.69V34.78z M125.63,34.78v-8h3.48
	c0.79,0,1.41,0.17,1.86,0.52c0.46,0.35,0.69,0.83,0.69,1.43c0,1.04-0.51,1.67-1.53,1.89c1.22,0.16,1.84,0.77,1.84,1.85
	c0,0.65-0.25,1.2-0.76,1.64c-0.5,0.44-1.12,0.66-1.87,0.66H125.63z M126.91,27.88v2.25h1.92c1.03,0,1.55-0.4,1.55-1.2
	c0-0.7-0.46-1.05-1.39-1.05H126.91z M126.91,31.22v2.47h2.22c1.04,0,1.55-0.42,1.55-1.26c0-0.81-0.58-1.21-1.74-1.21H126.91z
	 M139.84,34.78h-1.28v-1.25h-0.03c-0.56,0.96-1.38,1.44-2.46,1.44c-0.8,0-1.42-0.21-1.88-0.63c-0.45-0.42-0.67-0.98-0.67-1.68
	c0-1.49,0.88-2.36,2.64-2.61l2.4-0.34c0-1.36-0.55-2.04-1.65-2.04c-0.96,0-1.83,0.33-2.61,0.98v-1.31c0.79-0.5,1.69-0.75,2.72-0.75
	c1.88,0,2.82,0.99,2.82,2.98V34.78z M138.56,30.73L136.63,31c-0.59,0.08-1.04,0.23-1.34,0.45c-0.3,0.21-0.45,0.58-0.45,1.12
	c0,0.39,0.14,0.71,0.41,0.96c0.28,0.24,0.65,0.37,1.12,0.37c0.64,0,1.16-0.22,1.57-0.66c0.42-0.45,0.63-1.01,0.63-1.7V30.73z
	 M148.89,34.78h-1.28v-3.63h-4.08v3.63h-1.28v-8h1.28v3.28h4.08v-3.28h1.28V34.78z"/>
<path class="st5" d="M307.26,86.96l23.56-19.36"/>
<path class="st6" d="M343.92,65.82h-1.3V58.3c0-0.59,0.04-1.32,0.11-2.18h-0.03c-0.13,0.51-0.24,0.87-0.34,1.09l-3.83,8.61h-0.64
	l-3.82-8.55c-0.11-0.25-0.22-0.63-0.34-1.15h-0.03c0.04,0.45,0.06,1.18,0.06,2.2v7.5h-1.27v-11.2h1.73l3.44,7.81
	c0.27,0.6,0.44,1.05,0.52,1.34h0.05c0.22-0.61,0.4-1.07,0.54-1.38l3.51-7.78h1.64V65.82z M353.41,65.82h-1.16v-6.38
	c-0.11,0.22-0.29,0.54-0.52,0.95l-3.7,5.44h-1.33v-8h1.17v6.3c0.06-0.15,0.2-0.41,0.41-0.77l3.8-5.53h1.33V65.82z M361.84,57.82
	l-2.69,4.05l2.64,3.95h-1.49l-1.57-2.59c-0.1-0.16-0.22-0.36-0.35-0.61h-0.03c-0.03,0.05-0.15,0.25-0.37,0.61l-1.6,2.59h-1.48
	l2.73-3.92l-2.61-4.08h1.49l1.55,2.73c0.11,0.2,0.23,0.41,0.34,0.63h0.03l2-3.36H361.84z M369.07,65.82h-1.28v-1.25h-0.03
	c-0.56,0.96-1.38,1.44-2.46,1.44c-0.8,0-1.42-0.21-1.88-0.63c-0.45-0.42-0.67-0.98-0.67-1.68c0-1.49,0.88-2.36,2.64-2.61l2.4-0.34
	c0-1.36-0.55-2.04-1.65-2.04c-0.96,0-1.83,0.33-2.61,0.98v-1.31c0.79-0.5,1.69-0.75,2.72-0.75c1.88,0,2.82,0.99,2.82,2.98V65.82z
	 M367.79,61.77l-1.93,0.27c-0.59,0.08-1.04,0.23-1.34,0.45c-0.3,0.21-0.45,0.58-0.45,1.12c0,0.39,0.14,0.71,0.41,0.96
	c0.28,0.24,0.65,0.37,1.12,0.37c0.64,0,1.16-0.22,1.57-0.66c0.42-0.45,0.63-1.01,0.63-1.7V61.77z M378.19,65.82h-1.16v-6.38
	c-0.11,0.22-0.29,0.54-0.52,0.95l-3.7,5.44h-1.33v-8h1.17v6.3c0.06-0.15,0.2-0.41,0.41-0.77l3.8-5.53h1.33V65.82z M386.62,65.82
	h-1.27V58.9h-1.86c-0.21,2.59-0.58,4.41-1.1,5.45c-0.52,1.05-1.21,1.57-2.09,1.57c-0.27,0-0.49-0.04-0.69-0.11v-1.1
	c0.18,0.09,0.38,0.14,0.59,0.14c1.15,0,1.88-2.35,2.21-7.04h4.2V65.82z"/>
<path class="st5" d="M331.43,215.7l29.77,6.6"/>
<path class="st6" d="M370.45,220.23c-0.83,0.44-1.86,0.66-3.09,0.66c-1.59,0-2.87-0.51-3.83-1.54c-0.96-1.03-1.44-2.37-1.44-4.04
	c0-1.79,0.54-3.24,1.62-4.34c1.08-1.1,2.45-1.66,4.1-1.66c1.06,0,1.94,0.15,2.64,0.46v1.4c-0.8-0.45-1.69-0.67-2.66-0.67
	c-1.29,0-2.33,0.43-3.13,1.29c-0.8,0.86-1.2,2.01-1.2,3.45c0,1.36,0.37,2.45,1.12,3.27c0.75,0.81,1.73,1.21,2.95,1.21
	c1.13,0,2.1-0.25,2.92-0.75V220.23z M378.98,217.02h-5.65c0.02,0.89,0.26,1.58,0.72,2.06c0.46,0.48,1.09,0.73,1.89,0.73
	c0.9,0,1.73-0.3,2.48-0.89v1.2c-0.7,0.51-1.63,0.77-2.79,0.77c-1.13,0-2.02-0.36-2.66-1.09c-0.65-0.73-0.97-1.75-0.97-3.07
	c0-1.24,0.35-2.26,1.05-3.04c0.71-0.79,1.59-1.18,2.63-1.18c1.05,0,1.86,0.34,2.43,1.02c0.57,0.68,0.86,1.62,0.86,2.82V217.02z
	 M377.67,215.94c-0.01-0.74-0.18-1.32-0.54-1.73c-0.35-0.41-0.84-0.62-1.46-0.62c-0.6,0-1.12,0.22-1.54,0.65
	c-0.42,0.43-0.68,1-0.78,1.7H377.67z M382.24,219.55h-0.03v4.84h-1.28V212.7h1.28v1.41h0.03c0.63-1.06,1.55-1.59,2.77-1.59
	c1.03,0,1.84,0.36,2.41,1.08c0.58,0.71,0.87,1.67,0.87,2.88c0,1.34-0.33,2.41-0.98,3.22c-0.65,0.8-1.54,1.2-2.67,1.2
	C383.6,220.89,382.81,220.44,382.24,219.55z M382.21,216.32v1.12c0,0.66,0.21,1.22,0.64,1.69c0.43,0.46,0.98,0.69,1.64,0.69
	c0.78,0,1.38-0.3,1.82-0.89c0.44-0.59,0.66-1.42,0.66-2.48c0-0.89-0.21-1.59-0.62-2.09c-0.41-0.51-0.97-0.76-1.67-0.76
	c-0.74,0-1.34,0.26-1.8,0.78C382.44,214.89,382.21,215.54,382.21,216.32z M394.78,213.8h-3.16v6.91h-1.28v-8h4.45V213.8z
	 M402.89,217.02h-5.65c0.02,0.89,0.26,1.58,0.72,2.06c0.46,0.48,1.09,0.73,1.89,0.73c0.9,0,1.73-0.3,2.48-0.89v1.2
	c-0.7,0.51-1.63,0.77-2.79,0.77c-1.13,0-2.02-0.36-2.66-1.09c-0.65-0.73-0.97-1.75-0.97-3.07c0-1.24,0.35-2.26,1.05-3.04
	c0.71-0.79,1.59-1.18,2.63-1.18c1.05,0,1.86,0.34,2.43,1.02s0.86,1.62,0.86,2.82V217.02z M401.58,215.94
	c-0.01-0.74-0.18-1.32-0.54-1.73c-0.35-0.41-0.84-0.62-1.46-0.62c-0.6,0-1.12,0.22-1.54,0.65c-0.42,0.43-0.68,1-0.78,1.7H401.58z
	 M411.54,220.7h-1.16v-6.38c-0.11,0.22-0.29,0.54-0.52,0.95l-3.7,5.44h-1.33v-8h1.17v6.3c0.06-0.15,0.2-0.41,0.41-0.77l3.8-5.53
	h1.33V220.7z M411.07,208.81c-0.08,0.73-0.38,1.32-0.89,1.74c-0.51,0.42-1.15,0.63-1.92,0.63c-0.79,0-1.44-0.21-1.94-0.63
	c-0.49-0.43-0.77-1.01-0.81-1.74h1.27c0.07,0.98,0.57,1.47,1.5,1.47c0.42,0,0.76-0.13,1.03-0.38c0.27-0.26,0.44-0.62,0.5-1.09
	H411.07z"/>
<path class="st5" d="M287.49,278.45l16.88,29.93"/>
<path class="st6" d="M316.7,328.98h-5.94v-11.2h5.69v1.19h-4.38v3.73h4.05v1.18h-4.05v3.92h4.63V328.98z M318.68,328.98v-8h3.48
	c0.79,0,1.41,0.17,1.86,0.52c0.46,0.35,0.69,0.83,0.69,1.43c0,1.04-0.51,1.67-1.53,1.89c1.22,0.16,1.84,0.77,1.84,1.85
	c0,0.65-0.25,1.2-0.76,1.64c-0.5,0.44-1.12,0.66-1.87,0.66H318.68z M319.96,322.07v2.25h1.92c1.03,0,1.55-0.4,1.55-1.2
	c0-0.7-0.46-1.05-1.39-1.05H319.96z M319.96,325.42v2.47h2.22c1.04,0,1.55-0.42,1.55-1.26c0-0.81-0.58-1.21-1.74-1.21H319.96z
	 M331.61,322.07h-3.16v6.91h-1.28v-8h4.45V322.07z M339.72,325.3h-5.65c0.02,0.89,0.26,1.58,0.72,2.06
	c0.46,0.48,1.09,0.73,1.89,0.73c0.9,0,1.73-0.3,2.48-0.89v1.2c-0.7,0.51-1.63,0.77-2.79,0.77c-1.13,0-2.02-0.36-2.66-1.09
	c-0.65-0.73-0.97-1.75-0.97-3.07c0-1.24,0.35-2.26,1.05-3.04c0.71-0.79,1.59-1.18,2.63-1.18c1.05,0,1.86,0.34,2.43,1.02
	s0.86,1.62,0.86,2.82V325.3z M338.41,324.21c-0.01-0.74-0.18-1.32-0.54-1.73c-0.35-0.41-0.84-0.62-1.46-0.62
	c-0.6,0-1.12,0.22-1.54,0.65c-0.42,0.43-0.68,1-0.78,1.7H338.41z M348.31,328.98h-1.28v-3.63h-4.08v3.63h-1.28v-8h1.28v3.28h4.08
	v-3.28h1.28V328.98z M357.6,328.98h-1.16v-6.38c-0.11,0.22-0.29,0.54-0.52,0.95l-3.7,5.44h-1.33v-8h1.17v6.3
	c0.06-0.15,0.2-0.41,0.41-0.77l3.8-5.53h1.33V328.98z M365.66,328.98h-1.28v-3.31h-1.07c-0.52,0-0.98,0.42-1.41,1.25l-1.04,2.06
	h-1.48l1.34-2.47c0.31-0.57,0.69-0.95,1.13-1.13c-0.63-0.08-1.1-0.31-1.43-0.69c-0.33-0.38-0.49-0.84-0.49-1.41
	c0-0.71,0.26-1.27,0.77-1.68c0.52-0.42,1.24-0.63,2.16-0.63h2.8V328.98z M364.38,324.6v-2.52h-1.52c-1.08,0-1.62,0.41-1.62,1.23
	c0,0.86,0.52,1.3,1.57,1.3H364.38z"/>
<path class="st5" d="M88.88,218.95l-30.45,1.58"/>
<path class="st6" d="M18.94,224.68h-1.3v-7.52c0-0.59,0.04-1.32,0.11-2.18h-0.03c-0.13,0.51-0.24,0.87-0.34,1.09l-3.83,8.61h-0.64
	l-3.82-8.55c-0.11-0.25-0.22-0.63-0.34-1.15H8.72c0.04,0.45,0.06,1.18,0.06,2.2v7.5H7.52v-11.2h1.73l3.44,7.81
	c0.27,0.6,0.44,1.05,0.52,1.34h0.05c0.22-0.61,0.4-1.07,0.54-1.38l3.51-7.78h1.64V224.68z M27.45,224.68h-1.28v-1.25h-0.03
	c-0.56,0.96-1.38,1.44-2.46,1.44c-0.8,0-1.42-0.21-1.88-0.63c-0.45-0.42-0.67-0.98-0.67-1.68c0-1.49,0.88-2.36,2.64-2.61l2.4-0.34
	c0-1.36-0.55-2.04-1.65-2.04c-0.96,0-1.83,0.33-2.61,0.98v-1.31c0.79-0.5,1.69-0.75,2.72-0.75c1.88,0,2.82,0.99,2.82,2.98V224.68z
	 M26.16,220.63l-1.93,0.27c-0.59,0.08-1.04,0.23-1.34,0.45c-0.3,0.21-0.45,0.58-0.45,1.12c0,0.39,0.14,0.71,0.41,0.96
	c0.28,0.24,0.65,0.37,1.12,0.37c0.64,0,1.16-0.22,1.57-0.66c0.42-0.45,0.63-1.01,0.63-1.7V220.63z M31.17,223.52h-0.03v4.84h-1.28
	v-11.68h1.28v1.41h0.03c0.63-1.06,1.55-1.59,2.77-1.59c1.03,0,1.84,0.36,2.41,1.08c0.58,0.71,0.87,1.67,0.87,2.88
	c0,1.34-0.33,2.41-0.98,3.22c-0.65,0.8-1.54,1.2-2.67,1.2C32.53,224.87,31.73,224.42,31.17,223.52z M31.14,220.3v1.12
	c0,0.66,0.21,1.22,0.64,1.69c0.43,0.46,0.98,0.69,1.64,0.69c0.78,0,1.38-0.3,1.82-0.89c0.44-0.59,0.66-1.42,0.66-2.48
	c0-0.89-0.21-1.59-0.62-2.09c-0.41-0.51-0.97-0.76-1.67-0.76c-0.74,0-1.34,0.26-1.8,0.78C31.37,218.87,31.14,219.51,31.14,220.3z
	 M45.97,224.68h-1.16v-6.38c-0.11,0.22-0.29,0.54-0.52,0.95l-3.7,5.44h-1.33v-8h1.17v6.3c0.06-0.15,0.2-0.41,0.41-0.77l3.8-5.53
	h1.33V224.68z M54.03,224.68h-1.28v-3.31h-1.07c-0.52,0-0.98,0.42-1.41,1.25l-1.04,2.06h-1.48l1.34-2.47
	c0.31-0.57,0.69-0.95,1.13-1.13c-0.63-0.08-1.1-0.31-1.43-0.69c-0.33-0.38-0.49-0.84-0.49-1.41c0-0.71,0.26-1.27,0.77-1.68
	c0.52-0.42,1.24-0.63,2.16-0.63h2.8V224.68z M52.75,220.3v-2.52h-1.52c-1.08,0-1.62,0.41-1.62,1.23c0,0.86,0.52,1.3,1.57,1.3H52.75z
	"/>
</svg>
