<?xml version="1.0" encoding="utf-8"?>
<!-- Generator: Adobe Illustrator 23.0.1, SVG Export Plug-In . SVG Version: 6.00 Build 0)  -->
<svg version="1.1" id="Слой_1" xmlns="http://www.w3.org/2000/svg" xmlns:xlink="http://www.w3.org/1999/xlink" x="0px" y="0px"
	 viewBox="0 0 361 239" style="enable-background:new 0 0 361 239;" xml:space="preserve">
<style type="text/css">
	.st0{fill:none;stroke:#0D0E0F;stroke-dasharray:3,3;}
	.st1{fill:#8B5895;}
	.st2{fill:#1F1F1F;}
	.st3{fill:#528C5C;}
	.st4{fill:#CD4B43;}
	.st5{fill:#E49744;}
	.st6{fill:#4C6EB2;}
</style>
<path class="st0" d="M84.71,102.96h128.5"/>
<circle class="st1" cx="20.21" cy="98.96" r="4"/>
<path class="st2" d="M30,51.25c-1.27,0.66-2.84,0.98-4.72,0.98c-2.44,0-4.39-0.77-5.86-2.31c-1.47-1.54-2.2-3.56-2.2-6.06
	c0-2.69,0.82-4.86,2.47-6.52c1.66-1.66,3.75-2.48,6.27-2.48c1.63,0,2.97,0.23,4.04,0.69v2.77c-1.13-0.67-2.38-1.01-3.75-1.01
	c-1.82,0-3.3,0.58-4.43,1.75c-1.13,1.16-1.69,2.72-1.69,4.66c0,1.85,0.53,3.33,1.58,4.43c1.05,1.09,2.44,1.64,4.16,1.64
	c1.59,0,2.96-0.38,4.13-1.13V51.25z M38.2,52.24c-1.85,0-3.33-0.56-4.44-1.68c-1.1-1.13-1.65-2.61-1.65-4.46
	c0-2.02,0.57-3.59,1.72-4.72c1.16-1.13,2.71-1.7,4.66-1.7c1.88,0,3.34,0.55,4.38,1.65c1.05,1.1,1.57,2.63,1.57,4.58
	c0,1.91-0.57,3.45-1.7,4.61C41.63,51.66,40.11,52.24,38.2,52.24z M38.33,41.84c-1.06,0-1.9,0.37-2.52,1.11s-0.93,1.77-0.93,3.07
	c0,1.26,0.31,2.25,0.94,2.98c0.63,0.72,1.46,1.08,2.51,1.08c1.07,0,1.89-0.36,2.46-1.07c0.58-0.71,0.87-1.72,0.87-3.04
	c0-1.32-0.29-2.34-0.87-3.06C40.22,42.2,39.4,41.84,38.33,41.84z M59.75,56.33h-2.27v-4.37H47.23v-12h2.73v9.93h5.23v-9.93h2.73
	v9.93h1.84V56.33z M73.08,51.96h-2.46v-8.8c-0.16,0.31-0.39,0.75-0.71,1.3l-5.05,7.5h-2.67v-12h2.5v8.63
	c0.09-0.2,0.27-0.55,0.55-1.05l5.12-7.57h2.73V51.96z M85.85,51.96h-2.64v-1.88h-0.05c-0.83,1.44-2.04,2.16-3.64,2.16
	c-1.18,0-2.11-0.32-2.78-0.96c-0.66-0.64-1-1.49-1-2.54c0-2.27,1.3-3.59,3.91-3.96l3.56-0.5c0-1.71-0.81-2.57-2.44-2.57
	c-1.43,0-2.72,0.49-3.87,1.48V40.8c1.27-0.75,2.73-1.13,4.38-1.13c3.03,0,4.55,1.49,4.55,4.48V51.96z M83.23,46.06l-2.52,0.35
	c-0.78,0.1-1.37,0.29-1.77,0.57c-0.39,0.27-0.59,0.76-0.59,1.45c0,0.51,0.18,0.93,0.54,1.25c0.37,0.32,0.86,0.48,1.46,0.48
	c0.83,0,1.51-0.29,2.05-0.87c0.55-0.59,0.82-1.32,0.82-2.2V46.06z M99.11,51.96h-2.73v-9.93h-2.45c-0.34,3.71-0.93,6.32-1.77,7.83
	c-0.83,1.5-1.95,2.25-3.35,2.25c-0.47,0-0.87-0.07-1.21-0.2v-2.03c0.27,0.13,0.57,0.2,0.88,0.2c1.68,0,2.76-3.38,3.23-10.13h7.39
	V51.96z M102.66,51.96v-12h2.72v4.43h3.2c1.27,0,2.28,0.33,3.02,0.98c0.75,0.65,1.13,1.55,1.13,2.72c0,1.2-0.38,2.14-1.13,2.84
	c-0.74,0.69-1.68,1.03-2.82,1.03H102.66z M105.38,46.34V50h2.48c1.38,0,2.06-0.63,2.06-1.89c0-1.18-0.7-1.77-2.09-1.77H105.38z
	 M126.05,51.96h-2.73v-5.25h-5.23v5.25h-2.73v-12h2.73v4.71h5.23v-4.71h2.73V51.96z M134.91,52.24c-1.85,0-3.33-0.56-4.44-1.68
	c-1.1-1.13-1.65-2.61-1.65-4.46c0-2.02,0.57-3.59,1.72-4.72c1.16-1.13,2.71-1.7,4.66-1.7c1.88,0,3.34,0.55,4.38,1.65
	c1.05,1.1,1.57,2.63,1.57,4.58c0,1.91-0.57,3.45-1.7,4.61C138.33,51.66,136.81,52.24,134.91,52.24z M135.04,41.84
	c-1.06,0-1.9,0.37-2.52,1.11c-0.62,0.74-0.93,1.77-0.93,3.07c0,1.26,0.31,2.25,0.94,2.98c0.63,0.72,1.46,1.08,2.51,1.08
	c1.07,0,1.89-0.36,2.46-1.07c0.58-0.71,0.87-1.72,0.87-3.04c0-1.32-0.29-2.34-0.87-3.06C136.93,42.2,136.1,41.84,135.04,41.84z
	 M154.09,46.69h-8.18c0.03,1.11,0.37,1.96,1.02,2.57c0.66,0.6,1.55,0.9,2.69,0.9c1.28,0,2.46-0.38,3.53-1.15v2.19
	c-1.09,0.69-2.54,1.03-4.34,1.03c-1.76,0-3.15-0.54-4.16-1.63c-1-1.09-1.5-2.63-1.5-4.61c0-1.87,0.55-3.39,1.65-4.56
	c1.11-1.18,2.48-1.77,4.13-1.77c1.64,0,2.91,0.53,3.81,1.58c0.9,1.05,1.35,2.52,1.35,4.39V46.69z M151.46,44.77
	c-0.01-0.98-0.24-1.73-0.69-2.27c-0.45-0.55-1.08-0.82-1.88-0.82c-0.78,0-1.44,0.29-1.99,0.86c-0.54,0.57-0.87,1.32-1,2.24H151.46z
	 M173.98,51.96h-2.73v-9.93h-5.23v9.93h-2.73v-12h10.69V51.96z M180.28,50.19h-0.05v7.29h-2.72V39.96h2.72v2.11h0.05
	c0.93-1.59,2.29-2.39,4.08-2.39c1.52,0,2.71,0.54,3.56,1.61c0.85,1.07,1.28,2.51,1.28,4.31c0,2-0.48,3.6-1.44,4.8
	c-0.96,1.2-2.27,1.8-3.94,1.8C182.29,52.2,181.11,51.53,180.28,50.19z M180.21,45.45v1.49c0,0.88,0.28,1.62,0.83,2.23
	c0.56,0.61,1.27,0.91,2.13,0.91c1.01,0,1.8-0.39,2.37-1.17c0.58-0.79,0.87-1.89,0.87-3.29c0-1.18-0.27-2.1-0.81-2.77
	c-0.53-0.67-1.25-1.01-2.17-1.01c-0.97,0-1.75,0.34-2.34,1.03C180.5,43.56,180.21,44.42,180.21,45.45z M197.3,52.24
	c-1.85,0-3.33-0.56-4.44-1.68c-1.1-1.13-1.65-2.61-1.65-4.46c0-2.02,0.57-3.59,1.72-4.72c1.16-1.13,2.71-1.7,4.66-1.7
	c1.88,0,3.34,0.55,4.38,1.65c1.05,1.1,1.57,2.63,1.57,4.58c0,1.91-0.57,3.45-1.7,4.61C200.72,51.66,199.2,52.24,197.3,52.24z
	 M197.43,41.84c-1.06,0-1.9,0.37-2.52,1.11c-0.62,0.74-0.93,1.77-0.93,3.07c0,1.26,0.31,2.25,0.94,2.98
	c0.63,0.72,1.46,1.08,2.51,1.08c1.07,0,1.89-0.36,2.46-1.07c0.58-0.71,0.87-1.72,0.87-3.04c0-1.32-0.29-2.34-0.87-3.06
	C199.32,42.2,198.5,41.84,197.43,41.84z M216.48,46.69h-8.18c0.03,1.11,0.37,1.96,1.02,2.57c0.66,0.6,1.55,0.9,2.7,0.9
	c1.28,0,2.46-0.38,3.53-1.15v2.19c-1.09,0.69-2.54,1.03-4.34,1.03c-1.77,0-3.15-0.54-4.16-1.63c-1-1.09-1.5-2.63-1.5-4.61
	c0-1.87,0.55-3.39,1.65-4.56c1.11-1.18,2.49-1.77,4.13-1.77c1.64,0,2.91,0.53,3.81,1.58c0.9,1.05,1.35,2.52,1.35,4.39V46.69z
	 M213.85,44.77c-0.01-0.98-0.24-1.73-0.69-2.27c-0.45-0.55-1.08-0.82-1.88-0.82c-0.78,0-1.45,0.29-1.99,0.86
	c-0.54,0.57-0.87,1.32-1,2.24H213.85z M229.97,51.96h-3.46l-4.66-5.85h-0.05v5.85h-2.73v-12h2.73v5.52h0.05l4.41-5.52h3.33
	l-4.99,5.72L229.97,51.96z M239.86,42.12h-3.42v9.83h-2.73v-9.83h-3.45v-2.17h9.6V42.12z M252.91,51.96h-2.46v-8.8
	c-0.16,0.31-0.39,0.75-0.71,1.3l-5.05,7.5h-2.67v-12h2.5v8.63c0.09-0.2,0.27-0.55,0.55-1.05l5.12-7.57h2.73V51.96z M259.24,50.19
	h-0.05v7.29h-2.72V39.96h2.72v2.11h0.05c0.93-1.59,2.29-2.39,4.08-2.39c1.52,0,2.71,0.54,3.56,1.61c0.85,1.07,1.28,2.51,1.28,4.31
	c0,2-0.48,3.6-1.44,4.8c-0.96,1.2-2.27,1.8-3.94,1.8C261.25,52.2,260.07,51.53,259.24,50.19z M259.17,45.45v1.49
	c0,0.88,0.28,1.62,0.83,2.23c0.56,0.61,1.27,0.91,2.13,0.91c1.01,0,1.8-0.39,2.37-1.17c0.58-0.79,0.87-1.89,0.87-3.29
	c0-1.18-0.27-2.1-0.81-2.77c-0.53-0.67-1.25-1.01-2.17-1.01c-0.97,0-1.75,0.34-2.34,1.03C259.46,43.56,259.17,44.42,259.17,45.45z
	 M276.26,52.24c-1.85,0-3.33-0.56-4.44-1.68c-1.1-1.13-1.65-2.61-1.65-4.46c0-2.02,0.57-3.59,1.72-4.72c1.16-1.13,2.71-1.7,4.66-1.7
	c1.88,0,3.34,0.55,4.38,1.65c1.05,1.1,1.57,2.63,1.57,4.58c0,1.91-0.57,3.45-1.7,4.61C279.68,51.66,278.16,52.24,276.26,52.24z
	 M276.39,41.84c-1.06,0-1.9,0.37-2.52,1.11s-0.93,1.77-0.93,3.07c0,1.26,0.31,2.25,0.94,2.98c0.63,0.72,1.46,1.08,2.51,1.08
	c1.07,0,1.89-0.36,2.46-1.07c0.58-0.71,0.87-1.72,0.87-3.04c0-1.32-0.29-2.34-0.87-3.06C278.28,42.2,277.46,41.84,276.39,41.84z
	 M285.28,51.96v-12h5.73c1.29,0,2.31,0.26,3.06,0.79c0.75,0.52,1.13,1.24,1.13,2.14c0,1.53-0.79,2.46-2.36,2.79
	c1.87,0.23,2.8,1.16,2.8,2.77c0,0.99-0.39,1.83-1.18,2.51c-0.79,0.67-1.77,1.01-2.94,1.01H285.28z M288,41.88v2.99h2.4
	c1.36,0,2.04-0.53,2.04-1.58c0-0.94-0.59-1.41-1.78-1.41H288z M288,46.75v3.27h2.79c1.39,0,2.09-0.56,2.09-1.69
	c0-1.05-0.75-1.58-2.26-1.58H288z M307.76,51.96h-2.64v-1.88h-0.05c-0.83,1.44-2.04,2.16-3.64,2.16c-1.18,0-2.11-0.32-2.78-0.96
	c-0.66-0.64-1-1.49-1-2.54c0-2.27,1.3-3.59,3.91-3.96l3.56-0.5c0-1.71-0.81-2.57-2.44-2.57c-1.43,0-2.72,0.49-3.87,1.48V40.8
	c1.27-0.75,2.73-1.13,4.38-1.13c3.03,0,4.55,1.49,4.55,4.48V51.96z M305.13,46.06l-2.52,0.35c-0.78,0.1-1.37,0.29-1.77,0.57
	c-0.39,0.27-0.59,0.76-0.59,1.45c0,0.51,0.18,0.93,0.54,1.25c0.37,0.32,0.86,0.48,1.46,0.48c0.83,0,1.51-0.29,2.05-0.87
	c0.55-0.59,0.82-1.32,0.82-2.2V46.06z M321.77,51.96h-2.73v-5.25h-5.23v5.25h-2.73v-12h2.73v4.71h5.23v-4.71h2.73V51.96z
	 M336.21,51.96h-2.46v-8.8c-0.16,0.31-0.39,0.75-0.71,1.3l-5.05,7.5h-2.67v-12h2.5v8.63c0.09-0.2,0.27-0.55,0.55-1.05l5.12-7.57
	h2.73V51.96z M349.93,46.69h-8.18c0.03,1.11,0.37,1.96,1.02,2.57c0.66,0.6,1.55,0.9,2.7,0.9c1.28,0,2.46-0.38,3.53-1.15v2.19
	c-1.09,0.69-2.54,1.03-4.34,1.03c-1.77,0-3.15-0.54-4.16-1.63c-1-1.09-1.5-2.63-1.5-4.61c0-1.87,0.55-3.39,1.65-4.56
	c1.11-1.18,2.48-1.77,4.13-1.77c1.64,0,2.91,0.53,3.81,1.58c0.9,1.05,1.35,2.52,1.35,4.39V46.69z M347.31,44.77
	c-0.01-0.98-0.24-1.73-0.69-2.27c-0.45-0.55-1.08-0.82-1.88-0.82c-0.78,0-1.45,0.29-1.99,0.86c-0.54,0.57-0.87,1.32-1,2.24H347.31z"
	/>
<path class="st2" d="M46.71,102.96h-1.31v-8.09c0-0.73,0.03-1.24,0.08-1.54h-0.05c-0.1,0.26-0.22,0.49-0.36,0.7l-5.77,8.93h-1.63
	v-11.2h1.31v7.89c0,0.84-0.02,1.39-0.06,1.65h0.03c0.11-0.23,0.26-0.48,0.44-0.75l5.63-8.79h1.69V102.96z M49.49,102.96v-8h3.48
	c0.79,0,1.41,0.17,1.86,0.52c0.46,0.35,0.69,0.83,0.69,1.43c0,1.04-0.51,1.67-1.53,1.89c1.22,0.16,1.84,0.77,1.84,1.85
	c0,0.65-0.25,1.2-0.76,1.64c-0.5,0.44-1.12,0.66-1.87,0.66H49.49z M50.77,96.05v2.25h1.92c1.03,0,1.55-0.4,1.55-1.2
	c0-0.7-0.46-1.05-1.39-1.05H50.77z M50.77,99.39v2.47h2.22c1.04,0,1.55-0.42,1.55-1.26c0-0.81-0.58-1.21-1.74-1.21H50.77z
	 M63.7,102.96h-1.28v-1.25h-0.03c-0.56,0.96-1.38,1.44-2.46,1.44c-0.8,0-1.42-0.21-1.88-0.63c-0.45-0.42-0.67-0.98-0.67-1.68
	c0-1.49,0.88-2.36,2.64-2.61l2.4-0.34c0-1.36-0.55-2.04-1.65-2.04c-0.96,0-1.83,0.33-2.61,0.98v-1.31c0.79-0.5,1.69-0.75,2.72-0.75
	c1.88,0,2.82,0.99,2.82,2.98V102.96z M62.42,98.91l-1.93,0.27c-0.59,0.08-1.04,0.23-1.34,0.45c-0.3,0.21-0.45,0.58-0.45,1.12
	c0,0.39,0.14,0.71,0.41,0.96c0.28,0.24,0.65,0.37,1.12,0.37c0.64,0,1.16-0.22,1.57-0.66c0.42-0.45,0.63-1.01,0.63-1.7V98.91z
	 M72.75,102.96h-1.28v-3.63h-4.08v3.63h-1.28v-8h1.28v3.28h4.08v-3.28h1.28V102.96z"/>
<path class="st2" d="M234.15,102.96h-1.28v-6.91h-4.08v6.91h-1.28v-8h6.64V102.96z M238.05,101.8h-0.03v4.84h-1.28V94.96h1.28v1.41
	h0.03c0.63-1.06,1.55-1.59,2.76-1.59c1.03,0,1.84,0.36,2.41,1.08c0.58,0.71,0.87,1.67,0.87,2.88c0,1.34-0.33,2.41-0.98,3.22
	c-0.65,0.8-1.54,1.2-2.67,1.2C239.41,103.14,238.61,102.7,238.05,101.8z M238.02,98.57v1.12c0,0.66,0.21,1.22,0.64,1.69
	c0.43,0.46,0.98,0.69,1.64,0.69c0.78,0,1.38-0.3,1.82-0.89c0.44-0.59,0.66-1.42,0.66-2.48c0-0.89-0.21-1.59-0.62-2.09
	c-0.41-0.51-0.97-0.76-1.67-0.76c-0.74,0-1.34,0.26-1.8,0.78C238.25,97.14,238.02,97.79,238.02,98.57z M249.49,103.14
	c-1.18,0-2.13-0.37-2.84-1.12c-0.7-0.75-1.05-1.74-1.05-2.98c0-1.34,0.37-2.39,1.1-3.15c0.74-0.76,1.73-1.13,2.98-1.13
	c1.19,0,2.12,0.37,2.79,1.1c0.67,0.73,1.01,1.75,1.01,3.05c0,1.28-0.36,2.3-1.09,3.07C251.67,102.76,250.7,103.14,249.49,103.14z
	 M249.58,95.85c-0.82,0-1.47,0.28-1.95,0.84c-0.48,0.56-0.72,1.33-0.72,2.31c0,0.95,0.24,1.7,0.73,2.24
	c0.48,0.55,1.13,0.82,1.95,0.82c0.83,0,1.46-0.27,1.91-0.8c0.45-0.54,0.67-1.3,0.67-2.29c0-1-0.22-1.77-0.67-2.31
	C251.05,96.12,250.41,95.85,249.58,95.85z M259.96,96.05h-3.16v6.91h-1.28v-8h4.45V96.05z M262.96,101.8h-0.03v4.84h-1.28V94.96
	h1.28v1.41h0.03c0.63-1.06,1.55-1.59,2.77-1.59c1.03,0,1.84,0.36,2.41,1.08c0.58,0.71,0.87,1.67,0.87,2.88
	c0,1.34-0.33,2.41-0.98,3.22c-0.65,0.8-1.54,1.2-2.67,1.2C264.32,103.14,263.52,102.7,262.96,101.8z M262.93,98.57v1.12
	c0,0.66,0.21,1.22,0.64,1.69c0.43,0.46,0.98,0.69,1.64,0.69c0.78,0,1.38-0.3,1.82-0.89c0.44-0.59,0.66-1.42,0.66-2.48
	c0-0.89-0.2-1.59-0.62-2.09c-0.41-0.51-0.97-0.76-1.67-0.76c-0.74,0-1.34,0.26-1.8,0.78C263.15,97.14,262.93,97.79,262.93,98.57z
	 M277.48,99.28h-5.65c0.02,0.89,0.26,1.58,0.72,2.06c0.46,0.48,1.09,0.73,1.89,0.73c0.9,0,1.73-0.3,2.48-0.89v1.2
	c-0.7,0.51-1.63,0.77-2.79,0.77c-1.13,0-2.02-0.36-2.66-1.09c-0.65-0.73-0.97-1.75-0.97-3.07c0-1.24,0.35-2.26,1.05-3.04
	c0.71-0.79,1.59-1.18,2.63-1.18c1.05,0,1.86,0.34,2.43,1.02s0.86,1.62,0.86,2.82V99.28z M276.17,98.19
	c-0.01-0.74-0.18-1.32-0.54-1.73c-0.35-0.41-0.84-0.62-1.46-0.62c-0.6,0-1.12,0.22-1.54,0.65c-0.42,0.43-0.68,1-0.78,1.7H276.17z
	 M284.88,102.59c-0.61,0.37-1.34,0.55-2.19,0.55c-1.14,0-2.06-0.37-2.77-1.11c-0.7-0.74-1.05-1.71-1.05-2.89
	c0-1.32,0.38-2.38,1.13-3.17c0.76-0.8,1.76-1.2,3.02-1.2c0.7,0,1.32,0.13,1.86,0.39v1.31c-0.59-0.42-1.23-0.63-1.91-0.63
	c-0.82,0-1.49,0.29-2.02,0.88c-0.52,0.58-0.78,1.35-0.78,2.3c0,0.94,0.24,1.68,0.73,2.22c0.49,0.54,1.16,0.81,1.98,0.81
	c0.7,0,1.35-0.23,1.97-0.7V102.59z M292.27,102.59c-0.61,0.37-1.34,0.55-2.19,0.55c-1.14,0-2.06-0.37-2.77-1.11
	c-0.7-0.74-1.05-1.71-1.05-2.89c0-1.32,0.38-2.38,1.13-3.17c0.76-0.8,1.76-1.2,3.02-1.2c0.7,0,1.32,0.13,1.86,0.39v1.31
	c-0.59-0.42-1.23-0.63-1.91-0.63c-0.82,0-1.49,0.29-2.02,0.88c-0.52,0.58-0.78,1.35-0.78,2.3c0,0.94,0.24,1.68,0.73,2.22
	c0.49,0.54,1.16,0.81,1.98,0.81c0.7,0,1.35-0.23,1.97-0.7V102.59z M303.33,94.69c0-0.34-0.05-0.64-0.16-0.9
	c-0.1-0.26-0.25-0.47-0.44-0.63c-0.18-0.17-0.4-0.3-0.65-0.38c-0.25-0.08-0.52-0.13-0.81-0.13c-0.25,0-0.49,0.03-0.73,0.1
	c-0.24,0.07-0.47,0.16-0.7,0.28c-0.22,0.12-0.44,0.26-0.66,0.43c-0.21,0.17-0.4,0.35-0.59,0.55v-1.38c0.36-0.35,0.76-0.61,1.2-0.8
	c0.45-0.19,0.99-0.28,1.63-0.28c0.46,0,0.88,0.07,1.27,0.2c0.39,0.13,0.73,0.32,1.02,0.58c0.29,0.26,0.51,0.57,0.67,0.95
	c0.17,0.38,0.25,0.8,0.25,1.29c0,0.44-0.05,0.84-0.16,1.2c-0.1,0.36-0.25,0.7-0.46,1.02c-0.2,0.32-0.46,0.62-0.77,0.91
	c-0.31,0.29-0.68,0.59-1.1,0.89c-0.53,0.38-0.96,0.7-1.3,0.96c-0.34,0.27-0.61,0.52-0.81,0.75c-0.2,0.23-0.34,0.46-0.42,0.7
	c-0.08,0.23-0.12,0.49-0.12,0.8h5.58v1.15h-6.91v-0.55c0-0.48,0.05-0.9,0.16-1.27c0.1-0.36,0.28-0.71,0.52-1.04
	c0.24-0.33,0.55-0.66,0.94-0.98c0.39-0.33,0.87-0.7,1.43-1.11c0.41-0.29,0.74-0.57,1.02-0.84c0.28-0.27,0.5-0.53,0.66-0.8
	c0.17-0.27,0.28-0.53,0.35-0.8C303.3,95.29,303.33,95,303.33,94.69z M313.89,97.31c0,0.94-0.09,1.77-0.26,2.49
	c-0.17,0.72-0.41,1.34-0.73,1.84c-0.32,0.49-0.71,0.87-1.18,1.13c-0.46,0.26-0.99,0.38-1.59,0.38c-0.56,0-1.07-0.12-1.51-0.37
	c-0.44-0.25-0.81-0.61-1.11-1.09c-0.3-0.47-0.53-1.05-0.69-1.74c-0.16-0.69-0.23-1.48-0.23-2.38c0-0.98,0.08-1.84,0.24-2.59
	c0.17-0.75,0.41-1.38,0.73-1.88c0.32-0.51,0.71-0.89,1.18-1.15c0.47-0.26,1.02-0.39,1.63-0.39
	C312.72,91.57,313.89,93.48,313.89,97.31z M312.58,97.43c0-3.19-0.76-4.78-2.27-4.78c-1.6,0-2.4,1.62-2.4,4.87
	c0,3.03,0.78,4.54,2.35,4.54C311.81,102.06,312.58,100.52,312.58,97.43z M317.71,97.37c-0.77,0-1.39-0.25-1.84-0.76
	c-0.46-0.51-0.69-1.19-0.69-2.04c0-0.93,0.24-1.66,0.73-2.19c0.48-0.54,1.14-0.8,1.96-0.8c0.8,0,1.41,0.25,1.85,0.74
	c0.44,0.49,0.66,1.19,0.66,2.09c0,0.9-0.25,1.61-0.74,2.16C319.15,97.1,318.5,97.37,317.71,97.37z M317.82,92.44
	c-0.49,0-0.89,0.18-1.17,0.55c-0.29,0.36-0.43,0.87-0.43,1.51c0,0.63,0.14,1.12,0.42,1.48c0.28,0.35,0.66,0.52,1.15,0.52
	c0.49,0,0.87-0.18,1.15-0.55s0.41-0.87,0.41-1.52c0-0.63-0.14-1.12-0.41-1.47C318.66,92.62,318.29,92.44,317.82,92.44z
	 M325.21,91.75l-7.19,11.28h-1.12l7.18-11.28H325.21z M324.38,103.13c-0.77,0-1.39-0.26-1.84-0.77c-0.46-0.51-0.69-1.19-0.69-2.03
	c0-0.93,0.24-1.66,0.73-2.2c0.49-0.54,1.14-0.81,1.95-0.81c0.79,0,1.41,0.25,1.85,0.75c0.44,0.5,0.66,1.2,0.66,2.1
	c0,0.89-0.25,1.61-0.74,2.15C325.82,102.86,325.18,103.13,324.38,103.13z M324.49,98.21c-0.5,0-0.89,0.18-1.18,0.55
	c-0.28,0.36-0.42,0.87-0.42,1.52c0,0.62,0.14,1.11,0.42,1.46c0.28,0.35,0.66,0.52,1.15,0.52c0.49,0,0.87-0.18,1.15-0.55
	c0.28-0.37,0.41-0.88,0.41-1.52c0-0.64-0.14-1.13-0.41-1.47C325.33,98.38,324.96,98.21,324.49,98.21z"/>
<path class="st0" d="M96.21,132.96h117"/>
<circle class="st3" cx="20.21" cy="128.96" r="4"/>
<path class="st2" d="M49.1,132.96h-1.3v-7.52c0-0.59,0.04-1.32,0.11-2.18h-0.03c-0.13,0.51-0.24,0.87-0.34,1.09l-3.83,8.61h-0.64
	l-3.82-8.55c-0.11-0.25-0.22-0.63-0.34-1.15h-0.03c0.04,0.45,0.06,1.18,0.06,2.2v7.5h-1.27v-11.2h1.73l3.44,7.81
	c0.27,0.6,0.44,1.05,0.52,1.34h0.05c0.22-0.61,0.4-1.07,0.54-1.38l3.51-7.78h1.64V132.96z M57.61,132.96h-1.28v-1.25h-0.03
	c-0.56,0.96-1.38,1.44-2.46,1.44c-0.8,0-1.42-0.21-1.88-0.63c-0.45-0.42-0.67-0.98-0.67-1.68c0-1.49,0.88-2.36,2.64-2.61l2.4-0.34
	c0-1.36-0.55-2.04-1.65-2.04c-0.96,0-1.83,0.33-2.61,0.98v-1.31c0.79-0.5,1.69-0.75,2.72-0.75c1.88,0,2.82,0.99,2.82,2.98V132.96z
	 M56.32,128.91l-1.93,0.27c-0.59,0.08-1.04,0.23-1.34,0.45c-0.3,0.21-0.45,0.58-0.45,1.12c0,0.39,0.14,0.71,0.41,0.96
	c0.28,0.24,0.65,0.37,1.12,0.37c0.64,0,1.16-0.22,1.57-0.66c0.42-0.45,0.63-1.01,0.63-1.7V128.91z M61.33,131.8H61.3v4.84h-1.28
	v-11.68h1.28v1.41h0.03c0.63-1.06,1.55-1.59,2.77-1.59c1.03,0,1.84,0.36,2.41,1.08c0.58,0.71,0.87,1.67,0.87,2.88
	c0,1.34-0.33,2.41-0.98,3.22c-0.65,0.8-1.54,1.2-2.67,1.2C62.69,133.14,61.89,132.7,61.33,131.8z M61.3,128.57v1.12
	c0,0.66,0.21,1.22,0.64,1.69c0.43,0.46,0.98,0.69,1.64,0.69c0.78,0,1.38-0.3,1.82-0.89c0.44-0.59,0.66-1.42,0.66-2.48
	c0-0.89-0.21-1.59-0.62-2.09c-0.41-0.51-0.97-0.76-1.67-0.76c-0.74,0-1.34,0.26-1.8,0.78C61.53,127.14,61.3,127.79,61.3,128.57z
	 M76.13,132.96h-1.16v-6.38c-0.11,0.22-0.29,0.54-0.52,0.95l-3.7,5.44h-1.33v-8h1.17v6.3c0.06-0.15,0.2-0.41,0.41-0.77l3.8-5.53
	h1.33V132.96z M84.19,132.96h-1.28v-3.31h-1.07c-0.52,0-0.98,0.42-1.41,1.25l-1.04,2.06h-1.48l1.34-2.47
	c0.31-0.57,0.69-0.95,1.13-1.13c-0.63-0.08-1.1-0.31-1.43-0.69c-0.33-0.38-0.49-0.84-0.49-1.41c0-0.71,0.26-1.27,0.77-1.68
	c0.52-0.42,1.24-0.63,2.16-0.63h2.8V132.96z M82.91,128.57v-2.52h-1.52c-1.08,0-1.62,0.41-1.62,1.23c0,0.86,0.52,1.3,1.57,1.3H82.91
	z"/>
<path class="st2" d="M234.15,132.96h-1.28v-6.91h-4.08v6.91h-1.28v-8h6.64V132.96z M238.05,131.8h-0.03v4.84h-1.28v-11.68h1.28v1.41
	h0.03c0.63-1.06,1.55-1.59,2.76-1.59c1.03,0,1.84,0.36,2.41,1.08c0.58,0.71,0.87,1.67,0.87,2.88c0,1.34-0.33,2.41-0.98,3.22
	c-0.65,0.8-1.54,1.2-2.67,1.2C239.41,133.14,238.61,132.7,238.05,131.8z M238.02,128.57v1.12c0,0.66,0.21,1.22,0.64,1.69
	c0.43,0.46,0.98,0.69,1.64,0.69c0.78,0,1.38-0.3,1.82-0.89c0.44-0.59,0.66-1.42,0.66-2.48c0-0.89-0.21-1.59-0.62-2.09
	c-0.41-0.51-0.97-0.76-1.67-0.76c-0.74,0-1.34,0.26-1.8,0.78C238.25,127.14,238.02,127.79,238.02,128.57z M249.49,133.14
	c-1.18,0-2.13-0.37-2.84-1.12c-0.7-0.75-1.05-1.74-1.05-2.98c0-1.34,0.37-2.39,1.1-3.15c0.74-0.76,1.73-1.13,2.98-1.13
	c1.19,0,2.12,0.37,2.79,1.1c0.67,0.73,1.01,1.75,1.01,3.05c0,1.28-0.36,2.3-1.09,3.07C251.67,132.76,250.7,133.14,249.49,133.14z
	 M249.58,125.85c-0.82,0-1.47,0.28-1.95,0.84c-0.48,0.56-0.72,1.33-0.72,2.31c0,0.95,0.24,1.7,0.73,2.24
	c0.48,0.55,1.13,0.82,1.95,0.82c0.83,0,1.46-0.27,1.91-0.8c0.45-0.54,0.67-1.3,0.67-2.29c0-1-0.22-1.77-0.67-2.31
	C251.05,126.12,250.41,125.85,249.58,125.85z M259.96,126.05h-3.16v6.91h-1.28v-8h4.45V126.05z M262.96,131.8h-0.03v4.84h-1.28
	v-11.68h1.28v1.41h0.03c0.63-1.06,1.55-1.59,2.77-1.59c1.03,0,1.84,0.36,2.41,1.08c0.58,0.71,0.87,1.67,0.87,2.88
	c0,1.34-0.33,2.41-0.98,3.22c-0.65,0.8-1.54,1.2-2.67,1.2C264.32,133.14,263.52,132.7,262.96,131.8z M262.93,128.57v1.12
	c0,0.66,0.21,1.22,0.64,1.69c0.43,0.46,0.98,0.69,1.64,0.69c0.78,0,1.38-0.3,1.82-0.89c0.44-0.59,0.66-1.42,0.66-2.48
	c0-0.89-0.2-1.59-0.62-2.09c-0.41-0.51-0.97-0.76-1.67-0.76c-0.74,0-1.34,0.26-1.8,0.78C263.15,127.14,262.93,127.79,262.93,128.57z
	 M277.48,129.28h-5.65c0.02,0.89,0.26,1.58,0.72,2.06c0.46,0.48,1.09,0.73,1.89,0.73c0.9,0,1.73-0.3,2.48-0.89v1.2
	c-0.7,0.51-1.63,0.77-2.79,0.77c-1.13,0-2.02-0.36-2.66-1.09c-0.65-0.73-0.97-1.75-0.97-3.07c0-1.24,0.35-2.26,1.05-3.04
	c0.71-0.79,1.59-1.18,2.63-1.18c1.05,0,1.86,0.34,2.43,1.02s0.86,1.62,0.86,2.82V129.28z M276.17,128.19
	c-0.01-0.74-0.18-1.32-0.54-1.73c-0.35-0.41-0.84-0.62-1.46-0.62c-0.6,0-1.12,0.22-1.54,0.65c-0.42,0.43-0.68,1-0.78,1.7H276.17z
	 M284.88,132.59c-0.61,0.37-1.34,0.55-2.19,0.55c-1.14,0-2.06-0.37-2.77-1.11c-0.7-0.74-1.05-1.71-1.05-2.89
	c0-1.32,0.38-2.38,1.13-3.17c0.76-0.8,1.76-1.2,3.02-1.2c0.7,0,1.32,0.13,1.86,0.39v1.31c-0.59-0.42-1.23-0.63-1.91-0.63
	c-0.82,0-1.49,0.29-2.02,0.88c-0.52,0.58-0.78,1.35-0.78,2.3c0,0.94,0.24,1.68,0.73,2.22c0.49,0.54,1.16,0.81,1.98,0.81
	c0.7,0,1.35-0.23,1.97-0.7V132.59z M292.27,132.59c-0.61,0.37-1.34,0.55-2.19,0.55c-1.14,0-2.06-0.37-2.77-1.11
	c-0.7-0.74-1.05-1.71-1.05-2.89c0-1.32,0.38-2.38,1.13-3.17c0.76-0.8,1.76-1.2,3.02-1.2c0.7,0,1.32,0.13,1.86,0.39v1.31
	c-0.59-0.42-1.23-0.63-1.91-0.63c-0.82,0-1.49,0.29-2.02,0.88c-0.52,0.58-0.78,1.35-0.78,2.3c0,0.94,0.24,1.68,0.73,2.22
	c0.49,0.54,1.16,0.81,1.98,0.81c0.7,0,1.35-0.23,1.97-0.7V132.59z M305.29,129.4c0,0.55-0.09,1.05-0.27,1.51
	c-0.18,0.46-0.42,0.85-0.73,1.19c-0.31,0.33-0.68,0.59-1.12,0.78c-0.43,0.18-0.9,0.27-1.41,0.27c-0.56,0-1.07-0.12-1.52-0.35
	c-0.44-0.23-0.82-0.57-1.13-1.01c-0.31-0.44-0.54-0.98-0.7-1.62c-0.16-0.64-0.24-1.35-0.24-2.15c0-0.97,0.11-1.86,0.32-2.65
	c0.22-0.8,0.53-1.48,0.92-2.04c0.4-0.57,0.88-1.01,1.45-1.31c0.56-0.31,1.19-0.46,1.88-0.46c0.77,0,1.39,0.11,1.86,0.32v1.21
	c-0.58-0.3-1.19-0.45-1.83-0.45c-0.5,0-0.95,0.11-1.35,0.34c-0.4,0.22-0.74,0.54-1.03,0.95c-0.29,0.41-0.51,0.9-0.66,1.48
	c-0.15,0.58-0.23,1.22-0.23,1.93h0.03c0.52-0.93,1.37-1.4,2.55-1.4c0.49,0,0.93,0.08,1.32,0.25c0.4,0.17,0.73,0.4,1.01,0.71
	c0.28,0.3,0.5,0.66,0.65,1.09C305.21,128.42,305.29,128.89,305.29,129.4z M303.97,129.57c0-0.39-0.05-0.74-0.15-1.05
	s-0.24-0.58-0.43-0.8c-0.18-0.22-0.41-0.39-0.68-0.5c-0.27-0.12-0.58-0.18-0.92-0.18c-0.32,0-0.61,0.06-0.88,0.18
	c-0.27,0.12-0.51,0.28-0.7,0.49c-0.2,0.2-0.35,0.44-0.47,0.72c-0.11,0.27-0.16,0.56-0.16,0.87c0,0.39,0.05,0.75,0.16,1.09
	c0.11,0.33,0.26,0.63,0.46,0.88s0.43,0.45,0.7,0.59c0.28,0.14,0.58,0.21,0.91,0.21c0.32,0,0.62-0.06,0.88-0.18
	c0.27-0.13,0.49-0.3,0.68-0.52c0.19-0.22,0.33-0.48,0.44-0.78C303.92,130.27,303.97,129.94,303.97,129.57z M313.89,127.31
	c0,0.94-0.09,1.77-0.26,2.49c-0.17,0.72-0.41,1.34-0.73,1.84c-0.32,0.49-0.71,0.87-1.18,1.13c-0.46,0.26-0.99,0.38-1.59,0.38
	c-0.56,0-1.07-0.12-1.51-0.37c-0.44-0.25-0.81-0.61-1.11-1.09c-0.3-0.47-0.53-1.05-0.69-1.74c-0.16-0.69-0.23-1.48-0.23-2.38
	c0-0.98,0.08-1.84,0.24-2.59c0.17-0.75,0.41-1.38,0.73-1.88c0.32-0.51,0.71-0.89,1.18-1.15c0.47-0.26,1.02-0.39,1.63-0.39
	C312.72,121.57,313.89,123.48,313.89,127.31z M312.58,127.43c0-3.19-0.76-4.78-2.27-4.78c-1.6,0-2.4,1.62-2.4,4.87
	c0,3.03,0.78,4.54,2.35,4.54C311.81,132.06,312.58,130.52,312.58,127.43z M317.71,127.37c-0.77,0-1.39-0.25-1.84-0.76
	c-0.46-0.51-0.69-1.19-0.69-2.04c0-0.93,0.24-1.66,0.73-2.19c0.48-0.54,1.14-0.8,1.96-0.8c0.8,0,1.41,0.25,1.85,0.74
	c0.44,0.49,0.66,1.19,0.66,2.09c0,0.9-0.25,1.61-0.74,2.16C319.15,127.1,318.5,127.37,317.71,127.37z M317.82,122.44
	c-0.49,0-0.89,0.18-1.17,0.55c-0.29,0.36-0.43,0.87-0.43,1.51c0,0.63,0.14,1.12,0.42,1.48c0.28,0.35,0.66,0.52,1.15,0.52
	c0.49,0,0.87-0.18,1.15-0.55s0.41-0.87,0.41-1.52c0-0.63-0.14-1.12-0.41-1.47C318.66,122.62,318.29,122.44,317.82,122.44z
	 M325.21,121.75l-7.19,11.28h-1.12l7.18-11.28H325.21z M324.38,133.13c-0.77,0-1.39-0.26-1.84-0.77c-0.46-0.51-0.69-1.19-0.69-2.03
	c0-0.93,0.24-1.66,0.73-2.2c0.49-0.54,1.14-0.81,1.95-0.81c0.79,0,1.41,0.25,1.85,0.75c0.44,0.5,0.66,1.2,0.66,2.1
	c0,0.89-0.25,1.61-0.74,2.15C325.82,132.86,325.18,133.13,324.38,133.13z M324.49,128.21c-0.5,0-0.89,0.18-1.18,0.55
	c-0.28,0.36-0.42,0.87-0.42,1.52c0,0.62,0.14,1.11,0.42,1.46c0.28,0.35,0.66,0.52,1.15,0.52c0.49,0,0.87-0.18,1.15-0.55
	c0.28-0.37,0.41-0.88,0.41-1.52c0-0.64-0.14-1.13-0.41-1.47C325.33,128.38,324.96,128.21,324.49,128.21z"/>
<path class="st0" d="M102.21,162.96h111"/>
<circle class="st4" cx="20.21" cy="158.96" r="4"/>
<path class="st2" d="M43.61,162.96h-5.94v-11.2h5.69v1.19h-4.38v3.73h4.05v1.18h-4.05v3.92h4.63V162.96z M45.6,162.96v-8h3.48
	c0.79,0,1.41,0.17,1.86,0.52c0.46,0.35,0.69,0.83,0.69,1.43c0,1.04-0.51,1.67-1.53,1.89c1.22,0.16,1.84,0.77,1.84,1.85
	c0,0.65-0.25,1.2-0.76,1.64c-0.5,0.44-1.12,0.66-1.87,0.66H45.6z M46.88,156.05v2.25h1.92c1.03,0,1.55-0.4,1.55-1.2
	c0-0.7-0.46-1.05-1.39-1.05H46.88z M46.88,159.39v2.47h2.22c1.04,0,1.55-0.42,1.55-1.26c0-0.81-0.58-1.21-1.74-1.21H46.88z
	 M58.53,156.05h-3.16v6.91h-1.28v-8h4.45V156.05z M66.64,159.28h-5.65c0.02,0.89,0.26,1.58,0.72,2.06c0.46,0.48,1.09,0.73,1.89,0.73
	c0.9,0,1.73-0.3,2.48-0.89v1.2c-0.7,0.51-1.63,0.77-2.79,0.77c-1.13,0-2.02-0.36-2.66-1.09c-0.65-0.73-0.97-1.75-0.97-3.07
	c0-1.24,0.35-2.26,1.05-3.04c0.71-0.79,1.59-1.18,2.63-1.18c1.05,0,1.86,0.34,2.43,1.02s0.86,1.62,0.86,2.82V159.28z M65.32,158.19
	c-0.01-0.74-0.18-1.32-0.54-1.73c-0.35-0.41-0.84-0.62-1.46-0.62c-0.6,0-1.12,0.22-1.54,0.65c-0.42,0.43-0.68,1-0.78,1.7H65.32z
	 M75.22,162.96h-1.28v-3.63h-4.08v3.63h-1.28v-8h1.28v3.28h4.08v-3.28h1.28V162.96z M84.52,162.96h-1.16v-6.38
	c-0.11,0.22-0.29,0.54-0.52,0.94l-3.7,5.44h-1.33v-8h1.17v6.31c0.06-0.15,0.2-0.41,0.41-0.77l3.8-5.53h1.33V162.96z M92.58,162.96
	H91.3v-3.31h-1.07c-0.52,0-0.98,0.42-1.41,1.25l-1.04,2.06H86.3l1.34-2.47c0.31-0.57,0.69-0.95,1.13-1.13
	c-0.63-0.08-1.1-0.31-1.43-0.69c-0.33-0.38-0.49-0.84-0.49-1.41c0-0.71,0.26-1.27,0.77-1.68c0.52-0.42,1.24-0.63,2.16-0.63h2.8
	V162.96z M91.3,158.57v-2.52h-1.52c-1.08,0-1.62,0.41-1.62,1.23c0,0.86,0.52,1.3,1.57,1.3H91.3z"/>
<path class="st2" d="M234.15,162.96h-1.28v-6.91h-4.08v6.91h-1.28v-8h6.64V162.96z M238.05,161.8h-0.03v4.84h-1.28v-11.68h1.28v1.41
	h0.03c0.63-1.06,1.55-1.59,2.76-1.59c1.03,0,1.84,0.36,2.41,1.08c0.58,0.71,0.87,1.67,0.87,2.88c0,1.34-0.33,2.41-0.98,3.22
	c-0.65,0.8-1.54,1.2-2.67,1.2C239.41,163.14,238.61,162.7,238.05,161.8z M238.02,158.57v1.12c0,0.66,0.21,1.22,0.64,1.69
	c0.43,0.46,0.98,0.69,1.64,0.69c0.78,0,1.38-0.3,1.82-0.89c0.44-0.59,0.66-1.42,0.66-2.48c0-0.89-0.21-1.59-0.62-2.09
	c-0.41-0.51-0.97-0.76-1.67-0.76c-0.74,0-1.34,0.26-1.8,0.78C238.25,157.14,238.02,157.79,238.02,158.57z M249.49,163.14
	c-1.18,0-2.13-0.37-2.84-1.12c-0.7-0.75-1.05-1.74-1.05-2.98c0-1.34,0.37-2.39,1.1-3.15c0.74-0.76,1.73-1.13,2.98-1.13
	c1.19,0,2.12,0.37,2.79,1.1c0.67,0.73,1.01,1.75,1.01,3.06c0,1.28-0.36,2.3-1.09,3.07C251.67,162.76,250.7,163.14,249.49,163.14z
	 M249.58,155.85c-0.82,0-1.47,0.28-1.95,0.84c-0.48,0.56-0.72,1.33-0.72,2.31c0,0.95,0.24,1.7,0.73,2.24
	c0.48,0.55,1.13,0.82,1.95,0.82c0.83,0,1.46-0.27,1.91-0.8c0.45-0.54,0.67-1.3,0.67-2.29c0-1-0.22-1.77-0.67-2.31
	C251.05,156.12,250.41,155.85,249.58,155.85z M259.96,156.05h-3.16v6.91h-1.28v-8h4.45V156.05z M262.96,161.8h-0.03v4.84h-1.28
	v-11.68h1.28v1.41h0.03c0.63-1.06,1.55-1.59,2.77-1.59c1.03,0,1.84,0.36,2.41,1.08c0.58,0.71,0.87,1.67,0.87,2.88
	c0,1.34-0.33,2.41-0.98,3.22c-0.65,0.8-1.54,1.2-2.67,1.2C264.32,163.14,263.52,162.7,262.96,161.8z M262.93,158.57v1.12
	c0,0.66,0.21,1.22,0.64,1.69c0.43,0.46,0.98,0.69,1.64,0.69c0.78,0,1.38-0.3,1.82-0.89c0.44-0.59,0.66-1.42,0.66-2.48
	c0-0.89-0.2-1.59-0.62-2.09c-0.41-0.51-0.97-0.76-1.67-0.76c-0.74,0-1.34,0.26-1.8,0.78C263.15,157.14,262.93,157.79,262.93,158.57z
	 M277.48,159.28h-5.65c0.02,0.89,0.26,1.58,0.72,2.06c0.46,0.48,1.09,0.73,1.89,0.73c0.9,0,1.73-0.3,2.48-0.89v1.2
	c-0.7,0.51-1.63,0.77-2.79,0.77c-1.13,0-2.02-0.36-2.66-1.09c-0.65-0.73-0.97-1.75-0.97-3.07c0-1.24,0.35-2.26,1.05-3.04
	c0.71-0.79,1.59-1.18,2.63-1.18c1.05,0,1.86,0.34,2.43,1.02s0.86,1.62,0.86,2.82V159.28z M276.17,158.19
	c-0.01-0.74-0.18-1.32-0.54-1.73c-0.35-0.41-0.84-0.62-1.46-0.62c-0.6,0-1.12,0.22-1.54,0.65c-0.42,0.43-0.68,1-0.78,1.7H276.17z
	 M284.88,162.59c-0.61,0.37-1.34,0.56-2.19,0.56c-1.14,0-2.06-0.37-2.77-1.11c-0.7-0.74-1.05-1.71-1.05-2.89
	c0-1.32,0.38-2.38,1.13-3.17c0.76-0.8,1.76-1.2,3.02-1.2c0.7,0,1.32,0.13,1.86,0.39v1.31c-0.59-0.42-1.23-0.63-1.91-0.63
	c-0.82,0-1.49,0.29-2.02,0.88c-0.52,0.58-0.78,1.35-0.78,2.3c0,0.94,0.24,1.68,0.73,2.22c0.49,0.54,1.16,0.81,1.98,0.81
	c0.7,0,1.35-0.23,1.97-0.69V162.59z M292.27,162.59c-0.61,0.37-1.34,0.56-2.19,0.56c-1.14,0-2.06-0.37-2.77-1.11
	c-0.7-0.74-1.05-1.71-1.05-2.89c0-1.32,0.38-2.38,1.13-3.17c0.76-0.8,1.76-1.2,3.02-1.2c0.7,0,1.32,0.13,1.86,0.39v1.31
	c-0.59-0.42-1.23-0.63-1.91-0.63c-0.82,0-1.49,0.29-2.02,0.88c-0.52,0.58-0.78,1.35-0.78,2.3c0,0.94,0.24,1.68,0.73,2.22
	c0.49,0.54,1.16,0.81,1.98,0.81c0.7,0,1.35-0.23,1.97-0.69V162.59z M305.19,152.5c-0.17,0.3-0.38,0.67-0.63,1.11
	c-0.24,0.44-0.49,0.94-0.77,1.49s-0.55,1.15-0.83,1.78c-0.28,0.64-0.54,1.29-0.79,1.97c-0.24,0.68-0.46,1.36-0.65,2.06
	c-0.18,0.69-0.32,1.38-0.4,2.05h-1.38c0.09-0.67,0.24-1.35,0.43-2.04c0.2-0.7,0.42-1.38,0.66-2.05c0.25-0.67,0.51-1.32,0.79-1.94
	c0.28-0.62,0.54-1.19,0.8-1.71c0.26-0.52,0.5-0.98,0.71-1.38c0.22-0.4,0.39-0.71,0.52-0.94h-5.62v-1.16h7.13V152.5z M313.89,157.31
	c0,0.94-0.09,1.77-0.26,2.49c-0.17,0.72-0.41,1.34-0.73,1.84c-0.32,0.49-0.71,0.87-1.18,1.13c-0.46,0.26-0.99,0.38-1.59,0.38
	c-0.56,0-1.07-0.12-1.51-0.37c-0.44-0.25-0.81-0.61-1.11-1.09c-0.3-0.47-0.53-1.05-0.69-1.74c-0.16-0.69-0.23-1.48-0.23-2.38
	c0-0.98,0.08-1.84,0.24-2.59c0.17-0.75,0.41-1.38,0.73-1.88c0.32-0.51,0.71-0.89,1.18-1.15c0.47-0.26,1.02-0.39,1.63-0.39
	C312.72,151.57,313.89,153.48,313.89,157.31z M312.58,157.43c0-3.19-0.76-4.78-2.27-4.78c-1.6,0-2.4,1.62-2.4,4.87
	c0,3.03,0.78,4.54,2.35,4.54C311.81,162.06,312.58,160.52,312.58,157.43z M317.71,157.37c-0.77,0-1.39-0.25-1.84-0.76
	c-0.46-0.51-0.69-1.19-0.69-2.04c0-0.93,0.24-1.66,0.73-2.19c0.48-0.54,1.14-0.81,1.96-0.81c0.8,0,1.41,0.25,1.85,0.74
	c0.44,0.49,0.66,1.19,0.66,2.09s-0.25,1.62-0.74,2.16C319.15,157.1,318.5,157.37,317.71,157.37z M317.82,152.44
	c-0.49,0-0.89,0.18-1.17,0.55c-0.29,0.37-0.43,0.87-0.43,1.51c0,0.63,0.14,1.12,0.42,1.48c0.28,0.35,0.66,0.52,1.15,0.52
	c0.49,0,0.87-0.18,1.15-0.55c0.28-0.36,0.41-0.87,0.41-1.52c0-0.63-0.14-1.12-0.41-1.47C318.66,152.62,318.29,152.44,317.82,152.44z
	 M325.21,151.75l-7.19,11.28h-1.12l7.18-11.28H325.21z M324.38,163.13c-0.77,0-1.39-0.25-1.84-0.77c-0.46-0.51-0.69-1.19-0.69-2.03
	c0-0.93,0.24-1.66,0.73-2.19c0.49-0.54,1.14-0.81,1.95-0.81c0.79,0,1.41,0.25,1.85,0.75c0.44,0.5,0.66,1.2,0.66,2.1
	c0,0.89-0.25,1.61-0.74,2.15C325.82,162.86,325.18,163.13,324.38,163.13z M324.49,158.21c-0.5,0-0.89,0.18-1.18,0.55
	c-0.28,0.36-0.42,0.87-0.42,1.51c0,0.62,0.14,1.11,0.42,1.46c0.28,0.35,0.66,0.52,1.15,0.52c0.49,0,0.87-0.18,1.15-0.55
	c0.28-0.37,0.41-0.88,0.41-1.52c0-0.64-0.14-1.13-0.41-1.47C325.33,158.38,324.96,158.21,324.49,158.21z"/>
<path class="st0" d="M92.21,192.96h121"/>
<circle class="st5" cx="20.21" cy="188.96" r="4"/>
<path class="st2" d="M45.3,192.49c-0.83,0.44-1.86,0.66-3.09,0.66c-1.59,0-2.87-0.51-3.83-1.54c-0.96-1.03-1.44-2.37-1.44-4.04
	c0-1.79,0.54-3.24,1.62-4.34c1.08-1.11,2.45-1.66,4.1-1.66c1.06,0,1.94,0.15,2.64,0.46v1.4c-0.8-0.45-1.69-0.67-2.66-0.67
	c-1.29,0-2.33,0.43-3.13,1.29c-0.8,0.86-1.2,2.01-1.2,3.45c0,1.36,0.37,2.45,1.12,3.27c0.75,0.81,1.73,1.21,2.95,1.21
	c1.13,0,2.1-0.25,2.92-0.75V192.49z M53.84,189.28h-5.65c0.02,0.89,0.26,1.58,0.72,2.06c0.46,0.48,1.09,0.73,1.89,0.73
	c0.9,0,1.73-0.3,2.48-0.89v1.2c-0.7,0.51-1.63,0.77-2.79,0.77c-1.13,0-2.02-0.36-2.66-1.09c-0.65-0.73-0.97-1.75-0.97-3.07
	c0-1.25,0.35-2.26,1.05-3.04c0.71-0.79,1.59-1.18,2.63-1.18c1.05,0,1.86,0.34,2.43,1.02c0.57,0.68,0.86,1.62,0.86,2.82V189.28z
	 M52.53,188.19c-0.01-0.74-0.18-1.31-0.54-1.73c-0.35-0.41-0.84-0.62-1.46-0.62c-0.6,0-1.12,0.22-1.54,0.65
	c-0.42,0.43-0.68,1-0.78,1.69H52.53z M57.1,191.8h-0.03v4.84h-1.28v-11.68h1.28v1.41h0.03c0.63-1.06,1.55-1.59,2.77-1.59
	c1.03,0,1.84,0.36,2.41,1.08c0.58,0.71,0.87,1.67,0.87,2.88c0,1.34-0.33,2.41-0.98,3.22c-0.65,0.8-1.54,1.2-2.67,1.2
	C58.46,193.14,57.66,192.7,57.1,191.8z M57.07,188.57v1.12c0,0.66,0.21,1.22,0.64,1.69c0.43,0.46,0.98,0.69,1.64,0.69
	c0.78,0,1.38-0.3,1.82-0.89c0.44-0.59,0.66-1.42,0.66-2.48c0-0.89-0.21-1.59-0.62-2.09c-0.41-0.5-0.97-0.76-1.67-0.76
	c-0.74,0-1.34,0.26-1.8,0.78C57.29,187.14,57.07,187.79,57.07,188.57z M69.64,186.05h-3.16v6.91h-1.28v-8h4.45V186.05z
	 M77.75,189.28H72.1c0.02,0.89,0.26,1.58,0.72,2.06c0.46,0.48,1.09,0.73,1.89,0.73c0.9,0,1.73-0.3,2.48-0.89v1.2
	c-0.7,0.51-1.63,0.77-2.79,0.77c-1.13,0-2.02-0.36-2.66-1.09c-0.65-0.73-0.97-1.75-0.97-3.07c0-1.25,0.35-2.26,1.05-3.04
	c0.71-0.79,1.59-1.18,2.63-1.18c1.05,0,1.86,0.34,2.43,1.02c0.57,0.68,0.86,1.62,0.86,2.82V189.28z M76.43,188.19
	c-0.01-0.74-0.18-1.31-0.54-1.73c-0.35-0.41-0.84-0.62-1.46-0.62c-0.6,0-1.12,0.22-1.54,0.65c-0.42,0.43-0.68,1-0.78,1.69H76.43z
	 M86.39,192.96h-1.16v-6.38c-0.11,0.22-0.29,0.54-0.52,0.94l-3.7,5.44h-1.33v-8h1.17v6.3c0.06-0.15,0.2-0.41,0.41-0.77l3.8-5.53
	h1.33V192.96z M85.93,181.07c-0.08,0.74-0.38,1.32-0.89,1.74c-0.51,0.42-1.15,0.63-1.92,0.63c-0.79,0-1.44-0.21-1.94-0.63
	c-0.49-0.43-0.77-1.01-0.81-1.74h1.27c0.07,0.98,0.57,1.47,1.5,1.47c0.42,0,0.76-0.13,1.03-0.38c0.27-0.26,0.44-0.62,0.5-1.09H85.93
	z"/>
<path class="st2" d="M234.15,192.96h-1.28v-6.91h-4.08v6.91h-1.28v-8h6.64V192.96z M238.05,191.8h-0.03v4.84h-1.28v-11.68h1.28v1.41
	h0.03c0.63-1.06,1.55-1.59,2.76-1.59c1.03,0,1.84,0.36,2.41,1.08c0.58,0.71,0.87,1.67,0.87,2.88c0,1.34-0.33,2.41-0.98,3.22
	c-0.65,0.8-1.54,1.2-2.67,1.2C239.41,193.14,238.61,192.7,238.05,191.8z M238.02,188.57v1.12c0,0.66,0.21,1.22,0.64,1.69
	c0.43,0.46,0.98,0.69,1.64,0.69c0.78,0,1.38-0.3,1.82-0.89c0.44-0.59,0.66-1.42,0.66-2.48c0-0.89-0.21-1.59-0.62-2.09
	c-0.41-0.5-0.97-0.76-1.67-0.76c-0.74,0-1.34,0.26-1.8,0.78C238.25,187.14,238.02,187.79,238.02,188.57z M249.49,193.14
	c-1.18,0-2.13-0.37-2.84-1.12c-0.7-0.75-1.05-1.74-1.05-2.98c0-1.34,0.37-2.39,1.1-3.15c0.74-0.76,1.73-1.13,2.98-1.13
	c1.19,0,2.12,0.37,2.79,1.1c0.67,0.73,1.01,1.75,1.01,3.05c0,1.28-0.36,2.3-1.09,3.07C251.67,192.76,250.7,193.14,249.49,193.14z
	 M249.58,185.85c-0.82,0-1.47,0.28-1.95,0.84c-0.48,0.56-0.72,1.33-0.72,2.31c0,0.95,0.24,1.7,0.73,2.24
	c0.48,0.55,1.13,0.82,1.95,0.82c0.83,0,1.46-0.27,1.91-0.8c0.45-0.54,0.67-1.3,0.67-2.29c0-1-0.22-1.77-0.67-2.31
	C251.05,186.12,250.41,185.85,249.58,185.85z M259.96,186.05h-3.16v6.91h-1.28v-8h4.45V186.05z M262.96,191.8h-0.03v4.84h-1.28
	v-11.68h1.28v1.41h0.03c0.63-1.06,1.55-1.59,2.77-1.59c1.03,0,1.84,0.36,2.41,1.08c0.58,0.71,0.87,1.67,0.87,2.88
	c0,1.34-0.33,2.41-0.98,3.22c-0.65,0.8-1.54,1.2-2.67,1.2C264.32,193.14,263.52,192.7,262.96,191.8z M262.93,188.57v1.12
	c0,0.66,0.21,1.22,0.64,1.69c0.43,0.46,0.98,0.69,1.64,0.69c0.78,0,1.38-0.3,1.82-0.89c0.44-0.59,0.66-1.42,0.66-2.48
	c0-0.89-0.2-1.59-0.62-2.09c-0.41-0.5-0.97-0.76-1.67-0.76c-0.74,0-1.34,0.26-1.8,0.78C263.15,187.14,262.93,187.79,262.93,188.57z
	 M277.48,189.28h-5.65c0.02,0.89,0.26,1.58,0.72,2.06c0.46,0.48,1.09,0.73,1.89,0.73c0.9,0,1.73-0.3,2.48-0.89v1.2
	c-0.7,0.51-1.63,0.77-2.79,0.77c-1.13,0-2.02-0.36-2.66-1.09c-0.65-0.73-0.97-1.75-0.97-3.07c0-1.25,0.35-2.26,1.05-3.04
	c0.71-0.79,1.59-1.18,2.63-1.18c1.05,0,1.86,0.34,2.43,1.02s0.86,1.62,0.86,2.82V189.28z M276.17,188.19
	c-0.01-0.74-0.18-1.31-0.54-1.73c-0.35-0.41-0.84-0.62-1.46-0.62c-0.6,0-1.12,0.22-1.54,0.65c-0.42,0.43-0.68,1-0.78,1.69H276.17z
	 M284.88,192.59c-0.61,0.37-1.34,0.56-2.19,0.56c-1.14,0-2.06-0.37-2.77-1.11c-0.7-0.75-1.05-1.71-1.05-2.89
	c0-1.32,0.38-2.38,1.13-3.17c0.76-0.8,1.76-1.2,3.02-1.2c0.7,0,1.32,0.13,1.86,0.39v1.31c-0.59-0.42-1.23-0.63-1.91-0.63
	c-0.82,0-1.49,0.29-2.02,0.88c-0.52,0.58-0.78,1.35-0.78,2.31c0,0.94,0.24,1.68,0.73,2.22c0.49,0.54,1.16,0.81,1.98,0.81
	c0.7,0,1.35-0.23,1.97-0.69V192.59z M292.27,192.59c-0.61,0.37-1.34,0.56-2.19,0.56c-1.14,0-2.06-0.37-2.77-1.11
	c-0.7-0.75-1.05-1.71-1.05-2.89c0-1.32,0.38-2.38,1.13-3.17c0.76-0.8,1.76-1.2,3.02-1.2c0.7,0,1.32,0.13,1.86,0.39v1.31
	c-0.59-0.42-1.23-0.63-1.91-0.63c-0.82,0-1.49,0.29-2.02,0.88c-0.52,0.58-0.78,1.35-0.78,2.31c0,0.94,0.24,1.68,0.73,2.22
	c0.49,0.54,1.16,0.81,1.98,0.81c0.7,0,1.35-0.23,1.97-0.69V192.59z M302.96,192.96h-1.28v-9.68c-0.1,0.1-0.24,0.21-0.44,0.34
	c-0.19,0.13-0.4,0.25-0.64,0.38c-0.23,0.13-0.48,0.24-0.75,0.35c-0.26,0.11-0.52,0.19-0.77,0.26v-1.3c0.28-0.08,0.58-0.18,0.89-0.31
	c0.32-0.13,0.63-0.28,0.93-0.45c0.31-0.17,0.6-0.34,0.87-0.52c0.27-0.18,0.51-0.36,0.7-0.53h0.48V192.96z M313.89,187.31
	c0,0.94-0.09,1.77-0.26,2.49c-0.17,0.72-0.41,1.34-0.73,1.84c-0.32,0.49-0.71,0.87-1.18,1.13c-0.46,0.26-0.99,0.38-1.59,0.38
	c-0.56,0-1.07-0.12-1.51-0.37c-0.44-0.25-0.81-0.61-1.11-1.09c-0.3-0.47-0.53-1.05-0.69-1.74c-0.16-0.69-0.23-1.48-0.23-2.38
	c0-0.98,0.08-1.84,0.24-2.59c0.17-0.75,0.41-1.38,0.73-1.88c0.32-0.51,0.71-0.89,1.18-1.15c0.47-0.26,1.02-0.39,1.63-0.39
	C312.72,181.57,313.89,183.48,313.89,187.31z M312.58,187.43c0-3.19-0.76-4.78-2.27-4.78c-1.6,0-2.4,1.62-2.4,4.87
	c0,3.03,0.78,4.54,2.35,4.54C311.81,192.06,312.58,190.52,312.58,187.43z M317.71,187.37c-0.77,0-1.39-0.25-1.84-0.76
	c-0.46-0.51-0.69-1.19-0.69-2.04c0-0.93,0.24-1.66,0.73-2.19c0.48-0.54,1.14-0.8,1.96-0.8c0.8,0,1.41,0.25,1.85,0.74
	c0.44,0.49,0.66,1.19,0.66,2.09s-0.25,1.61-0.74,2.16C319.15,187.1,318.5,187.37,317.71,187.37z M317.82,182.44
	c-0.49,0-0.89,0.19-1.17,0.56c-0.29,0.37-0.43,0.87-0.43,1.51c0,0.63,0.14,1.12,0.42,1.48c0.28,0.35,0.66,0.52,1.15,0.52
	c0.49,0,0.87-0.18,1.15-0.55s0.41-0.87,0.41-1.52c0-0.63-0.14-1.12-0.41-1.47C318.66,182.62,318.29,182.44,317.82,182.44z
	 M325.21,181.75l-7.19,11.28h-1.12l7.18-11.28H325.21z M324.38,193.13c-0.77,0-1.39-0.25-1.84-0.77c-0.46-0.51-0.69-1.19-0.69-2.03
	c0-0.93,0.24-1.66,0.73-2.2c0.49-0.54,1.14-0.81,1.95-0.81c0.79,0,1.41,0.25,1.85,0.75c0.44,0.5,0.66,1.2,0.66,2.1
	c0,0.89-0.25,1.61-0.74,2.15C325.82,192.86,325.18,193.13,324.38,193.13z M324.49,188.21c-0.5,0-0.89,0.18-1.18,0.55
	c-0.28,0.36-0.42,0.87-0.42,1.51c0,0.62,0.14,1.11,0.42,1.46c0.28,0.35,0.66,0.52,1.15,0.52c0.49,0,0.87-0.18,1.15-0.55
	c0.28-0.37,0.41-0.88,0.41-1.52c0-0.63-0.14-1.13-0.41-1.47C325.33,188.38,324.96,188.21,324.49,188.21z"/>
<path class="st0" d="M100.21,222.96h113"/>
<circle class="st6" cx="20.21" cy="218.96" r="4"/>
<path class="st2" d="M49.1,222.96h-1.3v-7.52c0-0.59,0.04-1.32,0.11-2.18h-0.03c-0.13,0.51-0.24,0.87-0.34,1.09l-3.83,8.61h-0.64
	l-3.82-8.55c-0.11-0.25-0.22-0.63-0.34-1.15h-0.03c0.04,0.45,0.06,1.18,0.06,2.2v7.5h-1.27v-11.2h1.73l3.44,7.81
	c0.27,0.6,0.44,1.05,0.52,1.34h0.05c0.22-0.61,0.4-1.07,0.54-1.38l3.51-7.78h1.64V222.96z M58.58,222.96h-1.16v-6.38
	c-0.11,0.22-0.29,0.54-0.52,0.94l-3.7,5.44h-1.33v-8h1.17v6.3c0.06-0.15,0.2-0.41,0.41-0.77l3.8-5.53h1.33V222.96z M67.02,214.96
	L64.33,219l2.64,3.95h-1.49l-1.57-2.59c-0.1-0.16-0.22-0.36-0.35-0.61h-0.03c-0.03,0.05-0.15,0.25-0.37,0.61l-1.6,2.59h-1.48
	l2.73-3.92l-2.61-4.08h1.49l1.55,2.73c0.11,0.2,0.23,0.41,0.34,0.63h0.03l2-3.36H67.02z M74.25,222.96h-1.28v-1.25h-0.03
	c-0.56,0.96-1.38,1.44-2.46,1.44c-0.8,0-1.42-0.21-1.88-0.63c-0.45-0.42-0.67-0.98-0.67-1.68c0-1.49,0.88-2.37,2.64-2.61l2.4-0.34
	c0-1.36-0.55-2.04-1.65-2.04c-0.96,0-1.83,0.33-2.61,0.98v-1.31c0.79-0.5,1.69-0.75,2.72-0.75c1.88,0,2.82,1,2.82,2.99V222.96z
	 M72.96,218.91l-1.93,0.27c-0.59,0.08-1.04,0.23-1.34,0.45c-0.3,0.21-0.45,0.58-0.45,1.12c0,0.39,0.14,0.71,0.41,0.96
	c0.28,0.24,0.65,0.37,1.12,0.37c0.64,0,1.16-0.22,1.57-0.66c0.42-0.45,0.63-1.01,0.63-1.7V218.91z M83.36,222.96h-1.16v-6.38
	c-0.11,0.22-0.29,0.54-0.52,0.94l-3.7,5.44h-1.33v-8h1.17v6.3c0.06-0.15,0.2-0.41,0.41-0.77l3.8-5.53h1.33V222.96z M91.79,222.96
	h-1.27v-6.91h-1.86c-0.21,2.59-0.58,4.41-1.1,5.45c-0.52,1.05-1.21,1.57-2.09,1.57c-0.27,0-0.49-0.04-0.69-0.11v-1.1
	c0.18,0.09,0.38,0.14,0.59,0.14c1.15,0,1.88-2.35,2.21-7.04h4.2V222.96z"/>
<path class="st2" d="M234.15,222.96h-1.28v-6.91h-4.08v6.91h-1.28v-8h6.64V222.96z M238.05,221.8h-0.03v4.84h-1.28v-11.68h1.28v1.41
	h0.03c0.63-1.06,1.55-1.59,2.76-1.59c1.03,0,1.84,0.36,2.41,1.08c0.58,0.71,0.87,1.67,0.87,2.88c0,1.34-0.33,2.41-0.98,3.22
	c-0.65,0.8-1.54,1.2-2.67,1.2C239.41,223.14,238.61,222.7,238.05,221.8z M238.02,218.57v1.12c0,0.66,0.21,1.22,0.64,1.69
	c0.43,0.46,0.98,0.69,1.64,0.69c0.78,0,1.38-0.3,1.82-0.89c0.44-0.59,0.66-1.42,0.66-2.48c0-0.89-0.21-1.59-0.62-2.09
	c-0.41-0.5-0.97-0.76-1.67-0.76c-0.74,0-1.34,0.26-1.8,0.78C238.25,217.14,238.02,217.79,238.02,218.57z M249.49,223.14
	c-1.18,0-2.13-0.37-2.84-1.12c-0.7-0.75-1.05-1.74-1.05-2.98c0-1.34,0.37-2.39,1.1-3.15c0.74-0.76,1.73-1.13,2.98-1.13
	c1.19,0,2.12,0.37,2.79,1.1c0.67,0.73,1.01,1.75,1.01,3.05c0,1.28-0.36,2.3-1.09,3.07C251.67,222.76,250.7,223.14,249.49,223.14z
	 M249.58,215.85c-0.82,0-1.47,0.28-1.95,0.84c-0.48,0.56-0.72,1.33-0.72,2.31c0,0.95,0.24,1.7,0.73,2.24
	c0.48,0.55,1.13,0.82,1.95,0.82c0.83,0,1.46-0.27,1.91-0.8c0.45-0.54,0.67-1.3,0.67-2.29c0-1-0.22-1.77-0.67-2.31
	C251.05,216.12,250.41,215.85,249.58,215.85z M259.96,216.05h-3.16v6.91h-1.28v-8h4.45V216.05z M262.96,221.8h-0.03v4.84h-1.28
	v-11.68h1.28v1.41h0.03c0.63-1.06,1.55-1.59,2.77-1.59c1.03,0,1.84,0.36,2.41,1.08c0.58,0.71,0.87,1.67,0.87,2.88
	c0,1.34-0.33,2.41-0.98,3.22c-0.65,0.8-1.54,1.2-2.67,1.2C264.32,223.14,263.52,222.7,262.96,221.8z M262.93,218.57v1.12
	c0,0.66,0.21,1.22,0.64,1.69c0.43,0.46,0.98,0.69,1.64,0.69c0.78,0,1.38-0.3,1.82-0.89c0.44-0.59,0.66-1.42,0.66-2.48
	c0-0.89-0.2-1.59-0.62-2.09c-0.41-0.5-0.97-0.76-1.67-0.76c-0.74,0-1.34,0.26-1.8,0.78C263.15,217.14,262.93,217.79,262.93,218.57z
	 M277.48,219.28h-5.65c0.02,0.89,0.26,1.58,0.72,2.06c0.46,0.48,1.09,0.73,1.89,0.73c0.9,0,1.73-0.3,2.48-0.89v1.2
	c-0.7,0.51-1.63,0.77-2.79,0.77c-1.13,0-2.02-0.36-2.66-1.09c-0.65-0.73-0.97-1.75-0.97-3.07c0-1.25,0.35-2.26,1.05-3.04
	c0.71-0.79,1.59-1.18,2.63-1.18c1.05,0,1.86,0.34,2.43,1.02s0.86,1.62,0.86,2.82V219.28z M276.17,218.19
	c-0.01-0.74-0.18-1.31-0.54-1.73c-0.35-0.41-0.84-0.62-1.46-0.62c-0.6,0-1.12,0.22-1.54,0.65c-0.42,0.43-0.68,1-0.78,1.69H276.17z
	 M284.88,222.59c-0.61,0.37-1.34,0.56-2.19,0.56c-1.14,0-2.06-0.37-2.77-1.11c-0.7-0.75-1.05-1.71-1.05-2.89
	c0-1.32,0.38-2.38,1.13-3.17c0.76-0.8,1.76-1.2,3.02-1.2c0.7,0,1.32,0.13,1.86,0.39v1.31c-0.59-0.42-1.23-0.63-1.91-0.63
	c-0.82,0-1.49,0.29-2.02,0.88c-0.52,0.58-0.78,1.35-0.78,2.31c0,0.94,0.24,1.68,0.73,2.22c0.49,0.54,1.16,0.81,1.98,0.81
	c0.7,0,1.35-0.23,1.97-0.69V222.59z M292.27,222.59c-0.61,0.37-1.34,0.56-2.19,0.56c-1.14,0-2.06-0.37-2.77-1.11
	c-0.7-0.75-1.05-1.71-1.05-2.89c0-1.32,0.38-2.38,1.13-3.17c0.76-0.8,1.76-1.2,3.02-1.2c0.7,0,1.32,0.13,1.86,0.39v1.31
	c-0.59-0.42-1.23-0.63-1.91-0.63c-0.82,0-1.49,0.29-2.02,0.88c-0.52,0.58-0.78,1.35-0.78,2.31c0,0.94,0.24,1.68,0.73,2.22
	c0.49,0.54,1.16,0.81,1.98,0.81c0.7,0,1.35-0.23,1.97-0.69V222.59z M304.87,219.53c0,0.55-0.09,1.04-0.28,1.48
	c-0.19,0.44-0.46,0.82-0.8,1.14c-0.34,0.32-0.76,0.56-1.25,0.74c-0.49,0.17-1.03,0.26-1.63,0.26c-1.04,0-1.82-0.16-2.32-0.47v-1.36
	c0.76,0.49,1.54,0.74,2.34,0.74c0.41,0,0.77-0.06,1.09-0.18c0.33-0.12,0.61-0.29,0.84-0.5c0.23-0.21,0.4-0.47,0.52-0.77
	c0.13-0.3,0.19-0.63,0.19-0.99c0-0.73-0.24-1.3-0.73-1.71c-0.49-0.42-1.2-0.63-2.13-0.63c-0.15,0-0.31,0-0.48,0.01
	c-0.17,0-0.33,0.01-0.5,0.02c-0.17,0-0.33,0.01-0.49,0.02c-0.16,0.01-0.3,0.02-0.43,0.04l0.38-5.62h5.18v1.16h-4.07l-0.23,3.29
	c0.17-0.01,0.34-0.02,0.53-0.02c0.19-0.01,0.35-0.02,0.5-0.02c0.59,0,1.13,0.08,1.59,0.24c0.47,0.16,0.86,0.38,1.19,0.67
	c0.33,0.29,0.58,0.64,0.74,1.06C304.79,218.55,304.87,219.01,304.87,219.53z M313.89,217.31c0,0.94-0.09,1.77-0.26,2.49
	c-0.17,0.72-0.41,1.34-0.73,1.84c-0.32,0.49-0.71,0.87-1.18,1.13c-0.46,0.26-0.99,0.38-1.59,0.38c-0.56,0-1.07-0.12-1.51-0.37
	c-0.44-0.25-0.81-0.61-1.11-1.09c-0.3-0.47-0.53-1.05-0.69-1.74c-0.16-0.69-0.23-1.48-0.23-2.38c0-0.98,0.08-1.84,0.24-2.59
	c0.17-0.75,0.41-1.38,0.73-1.88c0.32-0.51,0.71-0.89,1.18-1.15c0.47-0.26,1.02-0.39,1.63-0.39
	C312.72,211.57,313.89,213.48,313.89,217.31z M312.58,217.43c0-3.19-0.76-4.78-2.27-4.78c-1.6,0-2.4,1.62-2.4,4.87
	c0,3.03,0.78,4.54,2.35,4.54C311.81,222.06,312.58,220.52,312.58,217.43z M317.71,217.37c-0.77,0-1.39-0.25-1.84-0.76
	c-0.46-0.51-0.69-1.19-0.69-2.04c0-0.93,0.24-1.66,0.73-2.19c0.48-0.54,1.14-0.8,1.96-0.8c0.8,0,1.41,0.25,1.85,0.74
	c0.44,0.49,0.66,1.19,0.66,2.09s-0.25,1.61-0.74,2.16C319.15,217.1,318.5,217.37,317.71,217.37z M317.82,212.44
	c-0.49,0-0.89,0.19-1.17,0.56c-0.29,0.37-0.43,0.87-0.43,1.51c0,0.63,0.14,1.12,0.42,1.48c0.28,0.35,0.66,0.52,1.15,0.52
	c0.49,0,0.87-0.18,1.15-0.55s0.41-0.87,0.41-1.52c0-0.63-0.14-1.12-0.41-1.47C318.66,212.62,318.29,212.44,317.82,212.44z
	 M325.21,211.75l-7.19,11.28h-1.12l7.18-11.28H325.21z M324.38,223.13c-0.77,0-1.39-0.25-1.84-0.77c-0.46-0.51-0.69-1.19-0.69-2.03
	c0-0.93,0.24-1.66,0.73-2.2c0.49-0.54,1.14-0.81,1.95-0.81c0.79,0,1.41,0.25,1.85,0.75c0.44,0.5,0.66,1.2,0.66,2.1
	c0,0.89-0.25,1.61-0.74,2.15C325.82,222.86,325.18,223.13,324.38,223.13z M324.49,218.21c-0.5,0-0.89,0.18-1.18,0.55
	c-0.28,0.36-0.42,0.87-0.42,1.51c0,0.62,0.14,1.11,0.42,1.46c0.28,0.35,0.66,0.52,1.15,0.52c0.49,0,0.87-0.18,1.15-0.55
	c0.28-0.37,0.41-0.88,0.41-1.52c0-0.63-0.14-1.13-0.41-1.47C325.33,218.38,324.96,218.21,324.49,218.21z"/>
</svg>
